<?xml version="1.0" encoding="utf-8" standalone="no"?>
<!DOCTYPE svg PUBLIC "-//W3C//DTD SVG 1.1//EN"
  "http://www.w3.org/Graphics/SVG/1.1/DTD/svg11.dtd">
<svg xmlns:xlink="http://www.w3.org/1999/xlink" width="460.8pt" height="345.6pt" viewBox="0 0 460.8 345.6" xmlns="http://www.w3.org/2000/svg" version="1.1">
 <metadata>
  <rdf:RDF xmlns:dc="http://purl.org/dc/elements/1.1/" xmlns:cc="http://creativecommons.org/ns#" xmlns:rdf="http://www.w3.org/1999/02/22-rdf-syntax-ns#">
   <cc:Work>
    <dc:type rdf:resource="http://purl.org/dc/dcmitype/StillImage"/>
    <dc:date>2024-07-07T15:13:54.805789</dc:date>
    <dc:format>image/svg+xml</dc:format>
    <dc:creator>
     <cc:Agent>
      <dc:title>Matplotlib v3.8.3, https://matplotlib.org/</dc:title>
     </cc:Agent>
    </dc:creator>
   </cc:Work>
  </rdf:RDF>
 </metadata>
 <defs>
  <style type="text/css">*{stroke-linejoin: round; stroke-linecap: butt}</style>
 </defs>
 <g id="figure_1">
  <g id="patch_1">
   <path d="M 0 345.6 
L 460.8 345.6 
L 460.8 0 
L 0 0 
z
" style="fill: #ffffff"/>
  </g>
  <g id="axes_1">
   <g id="patch_2">
    <path d="M 68.87 303.64 
L 450 303.64 
L 450 10.8 
L 68.87 10.8 
z
" style="fill: #ffffff"/>
   </g>
   <g id="PathCollection_1">
    <path d="M 155.490455 259.418166 
C 161.413159 259.418166 167.094082 257.065051 171.282066 252.877066 
C 175.470051 248.689082 177.823166 243.008159 177.823166 237.085455 
C 177.823166 231.16275 175.470051 225.481827 171.282066 221.293843 
C 167.094082 217.105858 161.413159 214.752743 155.490455 214.752743 
C 149.56775 214.752743 143.886827 217.105858 139.698843 221.293843 
C 135.510858 225.481827 133.157743 231.16275 133.157743 237.085455 
C 133.157743 243.008159 135.510858 248.689082 139.698843 252.877066 
C 143.886827 257.065051 149.56775 259.418166 155.490455 259.418166 
z
" clip-path="url(#pa4b824850a)" style="fill: #1f77b4; stroke: #ffffff; stroke-width: 2.576696"/>
    <path d="M 155.490455 176.344591 
C 160.562355 176.344591 165.427207 174.329504 169.013583 170.743128 
C 172.599958 167.156753 174.615046 162.291901 174.615046 157.22 
C 174.615046 152.148099 172.599958 147.283247 169.013583 143.696872 
C 165.427207 140.110496 160.562355 138.095409 155.490455 138.095409 
C 150.418554 138.095409 145.553702 140.110496 141.967326 143.696872 
C 138.380951 147.283247 136.365863 152.148099 136.365863 157.22 
C 136.365863 162.291901 138.380951 167.156753 141.967326 170.743128 
C 145.553702 174.329504 150.418554 176.344591 155.490455 176.344591 
z
" clip-path="url(#pa4b824850a)" style="fill: #1f77b4; stroke: #ffffff; stroke-width: 2.576696"/>
    <path d="M 155.490455 93.664052 
C 159.815786 93.664052 163.964546 91.945579 167.023017 88.887108 
C 170.081488 85.828637 171.799961 81.679877 171.799961 77.354545 
C 171.799961 73.029214 170.081488 68.880454 167.023017 65.821983 
C 163.964546 62.763512 159.815786 61.045039 155.490455 61.045039 
C 151.165123 61.045039 147.016363 62.763512 143.957892 65.821983 
C 140.899421 68.880454 139.180948 73.029214 139.180948 77.354545 
C 139.180948 81.679877 140.899421 85.828637 143.957892 88.887108 
C 147.016363 91.945579 151.165123 93.664052 155.490455 93.664052 
z
" clip-path="url(#pa4b824850a)" style="fill: #1f77b4; stroke: #ffffff; stroke-width: 2.576696"/>
    <path d="M 259.435 259.418166 
C 265.357704 259.418166 271.038627 257.065051 275.226612 252.877066 
C 279.414596 248.689082 281.767711 243.008159 281.767711 237.085455 
C 281.767711 231.16275 279.414596 225.481827 275.226612 221.293843 
C 271.038627 217.105858 265.357704 214.752743 259.435 214.752743 
C 253.512296 214.752743 247.831373 217.105858 243.643388 221.293843 
C 239.455404 225.481827 237.102289 231.16275 237.102289 237.085455 
C 237.102289 243.008159 239.455404 248.689082 243.643388 252.877066 
C 247.831373 257.065051 253.512296 259.418166 259.435 259.418166 
z
" clip-path="url(#pa4b824850a)" style="fill: #1f77b4; stroke: #ffffff; stroke-width: 2.576696"/>
    <path d="M 259.435 176.344591 
C 264.506901 176.344591 269.371753 174.329504 272.958128 170.743128 
C 276.544504 167.156753 278.559591 162.291901 278.559591 157.22 
C 278.559591 152.148099 276.544504 147.283247 272.958128 143.696872 
C 269.371753 140.110496 264.506901 138.095409 259.435 138.095409 
C 254.363099 138.095409 249.498247 140.110496 245.911872 143.696872 
C 242.325496 147.283247 240.310409 152.148099 240.310409 157.22 
C 240.310409 162.291901 242.325496 167.156753 245.911872 170.743128 
C 249.498247 174.329504 254.363099 176.344591 259.435 176.344591 
z
" clip-path="url(#pa4b824850a)" style="fill: #1f77b4; stroke: #ffffff; stroke-width: 2.576696"/>
    <path d="M 259.435 92.610692 
C 263.480977 92.610692 267.361787 91.003208 270.222725 88.14227 
C 273.083662 85.281332 274.691146 81.400523 274.691146 77.354545 
C 274.691146 73.308568 273.083662 69.427759 270.222725 66.566821 
C 267.361787 63.705883 263.480977 62.098399 259.435 62.098399 
C 255.389023 62.098399 251.508213 63.705883 248.647275 66.566821 
C 245.786338 69.427759 244.178854 73.308568 244.178854 77.354545 
C 244.178854 81.400523 245.786338 85.281332 248.647275 88.14227 
C 251.508213 91.003208 255.389023 92.610692 259.435 92.610692 
z
" clip-path="url(#pa4b824850a)" style="fill: #1f77b4; stroke: #ffffff; stroke-width: 2.576696"/>
    <path d="M 363.379545 257.876077 
C 368.893283 257.876077 374.181935 255.685446 378.080736 251.786645 
C 381.979537 247.887844 384.170168 242.599192 384.170168 237.085455 
C 384.170168 231.571717 381.979537 226.283065 378.080736 222.384264 
C 374.181935 218.485463 368.893283 216.294832 363.379545 216.294832 
C 357.865808 216.294832 352.577156 218.485463 348.678355 222.384264 
C 344.779554 226.283065 342.588923 231.571717 342.588923 237.085455 
C 342.588923 242.599192 344.779554 247.887844 348.678355 251.786645 
C 352.577156 255.685446 357.865808 257.876077 363.379545 257.876077 
z
" clip-path="url(#pa4b824850a)" style="fill: #1f77b4; stroke: #ffffff; stroke-width: 2.576696"/>
    <path d="M 363.379545 173.529506 
C 367.704877 173.529506 371.853637 171.811034 374.912108 168.752563 
C 377.970579 165.694091 379.689052 161.545332 379.689052 157.22 
C 379.689052 152.894668 377.970579 148.745909 374.912108 145.687437 
C 371.853637 142.628966 367.704877 140.910494 363.379545 140.910494 
C 359.054214 140.910494 354.905454 142.628966 351.846983 145.687437 
C 348.788512 148.745909 347.070039 152.894668 347.070039 157.22 
C 347.070039 161.545332 348.788512 165.694091 351.846983 168.752563 
C 354.905454 171.811034 359.054214 173.529506 363.379545 173.529506 
z
" clip-path="url(#pa4b824850a)" style="fill: #1f77b4; stroke: #ffffff; stroke-width: 2.576696"/>
    <path d="M 363.379545 97.32953 
C 368.676973 97.32953 373.758145 95.224839 377.503992 91.478992 
C 381.249839 87.733145 383.35453 82.651973 383.35453 77.354545 
C 383.35453 72.057118 381.249839 66.975946 377.503992 63.230099 
C 373.758145 59.484251 368.676973 57.379561 363.379545 57.379561 
C 358.082118 57.379561 353.000946 59.484251 349.255099 63.230099 
C 345.509251 66.975946 343.404561 72.057118 343.404561 77.354545 
C 343.404561 82.651973 345.509251 87.733145 349.255099 91.478992 
C 353.000946 95.224839 358.082118 97.32953 363.379545 97.32953 
z
" clip-path="url(#pa4b824850a)" style="fill: #1f77b4; stroke: #ffffff; stroke-width: 2.576696"/>
   </g>
   <g id="matplotlib.axis_1">
    <g id="xtick_1">
     <g id="line2d_1">
      <defs>
       <path id="mf474f34e6b" d="M 0 0 
L 0 3.5 
" style="stroke: #000000; stroke-width: 0.8"/>
      </defs>
      <g>
       <use xlink:href="#mf474f34e6b" x="155.490455" y="303.64" style="stroke: #000000; stroke-width: 0.8"/>
      </g>
     </g>
     <g id="text_1">
      <!-- Apple -->
      <g transform="translate(141.25608 318.238437) scale(0.1 -0.1)">
       <defs>
        <path id="DejaVuSans-41" d="M 2188 4044 
L 1331 1722 
L 3047 1722 
L 2188 4044 
z
M 1831 4666 
L 2547 4666 
L 4325 0 
L 3669 0 
L 3244 1197 
L 1141 1197 
L 716 0 
L 50 0 
L 1831 4666 
z
" transform="scale(0.015625)"/>
        <path id="DejaVuSans-70" d="M 1159 525 
L 1159 -1331 
L 581 -1331 
L 581 3500 
L 1159 3500 
L 1159 2969 
Q 1341 3281 1617 3432 
Q 1894 3584 2278 3584 
Q 2916 3584 3314 3078 
Q 3713 2572 3713 1747 
Q 3713 922 3314 415 
Q 2916 -91 2278 -91 
Q 1894 -91 1617 61 
Q 1341 213 1159 525 
z
M 3116 1747 
Q 3116 2381 2855 2742 
Q 2594 3103 2138 3103 
Q 1681 3103 1420 2742 
Q 1159 2381 1159 1747 
Q 1159 1113 1420 752 
Q 1681 391 2138 391 
Q 2594 391 2855 752 
Q 3116 1113 3116 1747 
z
" transform="scale(0.015625)"/>
        <path id="DejaVuSans-6c" d="M 603 4863 
L 1178 4863 
L 1178 0 
L 603 0 
L 603 4863 
z
" transform="scale(0.015625)"/>
        <path id="DejaVuSans-65" d="M 3597 1894 
L 3597 1613 
L 953 1613 
Q 991 1019 1311 708 
Q 1631 397 2203 397 
Q 2534 397 2845 478 
Q 3156 559 3463 722 
L 3463 178 
Q 3153 47 2828 -22 
Q 2503 -91 2169 -91 
Q 1331 -91 842 396 
Q 353 884 353 1716 
Q 353 2575 817 3079 
Q 1281 3584 2069 3584 
Q 2775 3584 3186 3129 
Q 3597 2675 3597 1894 
z
M 3022 2063 
Q 3016 2534 2758 2815 
Q 2500 3097 2075 3097 
Q 1594 3097 1305 2825 
Q 1016 2553 972 2059 
L 3022 2063 
z
" transform="scale(0.015625)"/>
       </defs>
       <use xlink:href="#DejaVuSans-41"/>
       <use xlink:href="#DejaVuSans-70" x="68.408203"/>
       <use xlink:href="#DejaVuSans-70" x="131.884766"/>
       <use xlink:href="#DejaVuSans-6c" x="195.361328"/>
       <use xlink:href="#DejaVuSans-65" x="223.144531"/>
      </g>
     </g>
    </g>
    <g id="xtick_2">
     <g id="line2d_2">
      <g>
       <use xlink:href="#mf474f34e6b" x="259.435" y="303.64" style="stroke: #000000; stroke-width: 0.8"/>
      </g>
     </g>
     <g id="text_2">
      <!-- Orange -->
      <g transform="translate(240.96 318.238437) scale(0.1 -0.1)">
       <defs>
        <path id="DejaVuSans-4f" d="M 2522 4238 
Q 1834 4238 1429 3725 
Q 1025 3213 1025 2328 
Q 1025 1447 1429 934 
Q 1834 422 2522 422 
Q 3209 422 3611 934 
Q 4013 1447 4013 2328 
Q 4013 3213 3611 3725 
Q 3209 4238 2522 4238 
z
M 2522 4750 
Q 3503 4750 4090 4092 
Q 4678 3434 4678 2328 
Q 4678 1225 4090 567 
Q 3503 -91 2522 -91 
Q 1538 -91 948 565 
Q 359 1222 359 2328 
Q 359 3434 948 4092 
Q 1538 4750 2522 4750 
z
" transform="scale(0.015625)"/>
        <path id="DejaVuSans-72" d="M 2631 2963 
Q 2534 3019 2420 3045 
Q 2306 3072 2169 3072 
Q 1681 3072 1420 2755 
Q 1159 2438 1159 1844 
L 1159 0 
L 581 0 
L 581 3500 
L 1159 3500 
L 1159 2956 
Q 1341 3275 1631 3429 
Q 1922 3584 2338 3584 
Q 2397 3584 2469 3576 
Q 2541 3569 2628 3553 
L 2631 2963 
z
" transform="scale(0.015625)"/>
        <path id="DejaVuSans-61" d="M 2194 1759 
Q 1497 1759 1228 1600 
Q 959 1441 959 1056 
Q 959 750 1161 570 
Q 1363 391 1709 391 
Q 2188 391 2477 730 
Q 2766 1069 2766 1631 
L 2766 1759 
L 2194 1759 
z
M 3341 1997 
L 3341 0 
L 2766 0 
L 2766 531 
Q 2569 213 2275 61 
Q 1981 -91 1556 -91 
Q 1019 -91 701 211 
Q 384 513 384 1019 
Q 384 1609 779 1909 
Q 1175 2209 1959 2209 
L 2766 2209 
L 2766 2266 
Q 2766 2663 2505 2880 
Q 2244 3097 1772 3097 
Q 1472 3097 1187 3025 
Q 903 2953 641 2809 
L 641 3341 
Q 956 3463 1253 3523 
Q 1550 3584 1831 3584 
Q 2591 3584 2966 3190 
Q 3341 2797 3341 1997 
z
" transform="scale(0.015625)"/>
        <path id="DejaVuSans-6e" d="M 3513 2113 
L 3513 0 
L 2938 0 
L 2938 2094 
Q 2938 2591 2744 2837 
Q 2550 3084 2163 3084 
Q 1697 3084 1428 2787 
Q 1159 2491 1159 1978 
L 1159 0 
L 581 0 
L 581 3500 
L 1159 3500 
L 1159 2956 
Q 1366 3272 1645 3428 
Q 1925 3584 2291 3584 
Q 2894 3584 3203 3211 
Q 3513 2838 3513 2113 
z
" transform="scale(0.015625)"/>
        <path id="DejaVuSans-67" d="M 2906 1791 
Q 2906 2416 2648 2759 
Q 2391 3103 1925 3103 
Q 1463 3103 1205 2759 
Q 947 2416 947 1791 
Q 947 1169 1205 825 
Q 1463 481 1925 481 
Q 2391 481 2648 825 
Q 2906 1169 2906 1791 
z
M 3481 434 
Q 3481 -459 3084 -895 
Q 2688 -1331 1869 -1331 
Q 1566 -1331 1297 -1286 
Q 1028 -1241 775 -1147 
L 775 -588 
Q 1028 -725 1275 -790 
Q 1522 -856 1778 -856 
Q 2344 -856 2625 -561 
Q 2906 -266 2906 331 
L 2906 616 
Q 2728 306 2450 153 
Q 2172 0 1784 0 
Q 1141 0 747 490 
Q 353 981 353 1791 
Q 353 2603 747 3093 
Q 1141 3584 1784 3584 
Q 2172 3584 2450 3431 
Q 2728 3278 2906 2969 
L 2906 3500 
L 3481 3500 
L 3481 434 
z
" transform="scale(0.015625)"/>
       </defs>
       <use xlink:href="#DejaVuSans-4f"/>
       <use xlink:href="#DejaVuSans-72" x="78.710938"/>
       <use xlink:href="#DejaVuSans-61" x="119.824219"/>
       <use xlink:href="#DejaVuSans-6e" x="181.103516"/>
       <use xlink:href="#DejaVuSans-67" x="244.482422"/>
       <use xlink:href="#DejaVuSans-65" x="307.958984"/>
      </g>
     </g>
    </g>
    <g id="xtick_3">
     <g id="line2d_3">
      <g>
       <use xlink:href="#mf474f34e6b" x="363.379545" y="303.64" style="stroke: #000000; stroke-width: 0.8"/>
      </g>
     </g>
     <g id="text_3">
      <!-- Pear -->
      <g transform="translate(352.349858 318.238437) scale(0.1 -0.1)">
       <defs>
        <path id="DejaVuSans-50" d="M 1259 4147 
L 1259 2394 
L 2053 2394 
Q 2494 2394 2734 2622 
Q 2975 2850 2975 3272 
Q 2975 3691 2734 3919 
Q 2494 4147 2053 4147 
L 1259 4147 
z
M 628 4666 
L 2053 4666 
Q 2838 4666 3239 4311 
Q 3641 3956 3641 3272 
Q 3641 2581 3239 2228 
Q 2838 1875 2053 1875 
L 1259 1875 
L 1259 0 
L 628 0 
L 628 4666 
z
" transform="scale(0.015625)"/>
       </defs>
       <use xlink:href="#DejaVuSans-50"/>
       <use xlink:href="#DejaVuSans-65" x="56.677734"/>
       <use xlink:href="#DejaVuSans-61" x="118.201172"/>
       <use xlink:href="#DejaVuSans-72" x="179.480469"/>
      </g>
     </g>
    </g>
    <g id="text_4">
     <!-- Rater 1 -->
     <g transform="translate(241.146719 331.916562) scale(0.1 -0.1)">
      <defs>
       <path id="DejaVuSans-52" d="M 2841 2188 
Q 3044 2119 3236 1894 
Q 3428 1669 3622 1275 
L 4263 0 
L 3584 0 
L 2988 1197 
Q 2756 1666 2539 1819 
Q 2322 1972 1947 1972 
L 1259 1972 
L 1259 0 
L 628 0 
L 628 4666 
L 2053 4666 
Q 2853 4666 3247 4331 
Q 3641 3997 3641 3322 
Q 3641 2881 3436 2590 
Q 3231 2300 2841 2188 
z
M 1259 4147 
L 1259 2491 
L 2053 2491 
Q 2509 2491 2742 2702 
Q 2975 2913 2975 3322 
Q 2975 3731 2742 3939 
Q 2509 4147 2053 4147 
L 1259 4147 
z
" transform="scale(0.015625)"/>
       <path id="DejaVuSans-74" d="M 1172 4494 
L 1172 3500 
L 2356 3500 
L 2356 3053 
L 1172 3053 
L 1172 1153 
Q 1172 725 1289 603 
Q 1406 481 1766 481 
L 2356 481 
L 2356 0 
L 1766 0 
Q 1100 0 847 248 
Q 594 497 594 1153 
L 594 3053 
L 172 3053 
L 172 3500 
L 594 3500 
L 594 4494 
L 1172 4494 
z
" transform="scale(0.015625)"/>
       <path id="DejaVuSans-20" transform="scale(0.015625)"/>
       <path id="DejaVuSans-31" d="M 794 531 
L 1825 531 
L 1825 4091 
L 703 3866 
L 703 4441 
L 1819 4666 
L 2450 4666 
L 2450 531 
L 3481 531 
L 3481 0 
L 794 0 
L 794 531 
z
" transform="scale(0.015625)"/>
      </defs>
      <use xlink:href="#DejaVuSans-52"/>
      <use xlink:href="#DejaVuSans-61" x="67.232422"/>
      <use xlink:href="#DejaVuSans-74" x="128.511719"/>
      <use xlink:href="#DejaVuSans-65" x="167.720703"/>
      <use xlink:href="#DejaVuSans-72" x="229.244141"/>
      <use xlink:href="#DejaVuSans-20" x="270.357422"/>
      <use xlink:href="#DejaVuSans-31" x="302.144531"/>
     </g>
    </g>
   </g>
   <g id="matplotlib.axis_2">
    <g id="ytick_1">
     <g id="line2d_4">
      <defs>
       <path id="mf7129e6c5e" d="M 0 0 
L -3.5 0 
" style="stroke: #000000; stroke-width: 0.8"/>
      </defs>
      <g>
       <use xlink:href="#mf7129e6c5e" x="68.87" y="237.085455" style="stroke: #000000; stroke-width: 0.8"/>
      </g>
     </g>
     <g id="text_5">
      <!-- Apple -->
      <g transform="translate(33.40125 240.884673) scale(0.1 -0.1)">
       <use xlink:href="#DejaVuSans-41"/>
       <use xlink:href="#DejaVuSans-70" x="68.408203"/>
       <use xlink:href="#DejaVuSans-70" x="131.884766"/>
       <use xlink:href="#DejaVuSans-6c" x="195.361328"/>
       <use xlink:href="#DejaVuSans-65" x="223.144531"/>
      </g>
     </g>
    </g>
    <g id="ytick_2">
     <g id="line2d_5">
      <g>
       <use xlink:href="#mf7129e6c5e" x="68.87" y="157.22" style="stroke: #000000; stroke-width: 0.8"/>
      </g>
     </g>
     <g id="text_6">
      <!-- Orange -->
      <g transform="translate(24.92 161.019219) scale(0.1 -0.1)">
       <use xlink:href="#DejaVuSans-4f"/>
       <use xlink:href="#DejaVuSans-72" x="78.710938"/>
       <use xlink:href="#DejaVuSans-61" x="119.824219"/>
       <use xlink:href="#DejaVuSans-6e" x="181.103516"/>
       <use xlink:href="#DejaVuSans-67" x="244.482422"/>
       <use xlink:href="#DejaVuSans-65" x="307.958984"/>
      </g>
     </g>
    </g>
    <g id="ytick_3">
     <g id="line2d_6">
      <g>
       <use xlink:href="#mf7129e6c5e" x="68.87" y="77.354545" style="stroke: #000000; stroke-width: 0.8"/>
      </g>
     </g>
     <g id="text_7">
      <!-- Pear -->
      <g transform="translate(39.810625 81.153764) scale(0.1 -0.1)">
       <use xlink:href="#DejaVuSans-50"/>
       <use xlink:href="#DejaVuSans-65" x="56.677734"/>
       <use xlink:href="#DejaVuSans-61" x="118.201172"/>
       <use xlink:href="#DejaVuSans-72" x="179.480469"/>
      </g>
     </g>
    </g>
    <g id="text_8">
     <!-- Rater 2 -->
     <g transform="translate(18.840312 175.508281) rotate(-90) scale(0.1 -0.1)">
      <defs>
       <path id="DejaVuSans-32" d="M 1228 531 
L 3431 531 
L 3431 0 
L 469 0 
L 469 531 
Q 828 903 1448 1529 
Q 2069 2156 2228 2338 
Q 2531 2678 2651 2914 
Q 2772 3150 2772 3378 
Q 2772 3750 2511 3984 
Q 2250 4219 1831 4219 
Q 1534 4219 1204 4116 
Q 875 4013 500 3803 
L 500 4441 
Q 881 4594 1212 4672 
Q 1544 4750 1819 4750 
Q 2544 4750 2975 4387 
Q 3406 4025 3406 3419 
Q 3406 3131 3298 2873 
Q 3191 2616 2906 2266 
Q 2828 2175 2409 1742 
Q 1991 1309 1228 531 
z
" transform="scale(0.015625)"/>
      </defs>
      <use xlink:href="#DejaVuSans-52"/>
      <use xlink:href="#DejaVuSans-61" x="67.232422"/>
      <use xlink:href="#DejaVuSans-74" x="128.511719"/>
      <use xlink:href="#DejaVuSans-65" x="167.720703"/>
      <use xlink:href="#DejaVuSans-72" x="229.244141"/>
      <use xlink:href="#DejaVuSans-20" x="270.357422"/>
      <use xlink:href="#DejaVuSans-32" x="302.144531"/>
     </g>
    </g>
   </g>
   <g id="patch_3">
    <path d="M 68.87 303.64 
L 68.87 10.8 
" style="fill: none; stroke: #000000; stroke-width: 0.8; stroke-linejoin: miter; stroke-linecap: square"/>
   </g>
   <g id="patch_4">
    <path d="M 450 303.64 
L 450 10.8 
" style="fill: none; stroke: #000000; stroke-width: 0.8; stroke-linejoin: miter; stroke-linecap: square"/>
   </g>
   <g id="patch_5">
    <path d="M 68.87 303.64 
L 450 303.64 
" style="fill: none; stroke: #000000; stroke-width: 0.8; stroke-linejoin: miter; stroke-linecap: square"/>
   </g>
   <g id="patch_6">
    <path d="M 68.87 10.8 
L 450 10.8 
" style="fill: none; stroke: #000000; stroke-width: 0.8; stroke-linejoin: miter; stroke-linecap: square"/>
   </g>
   <g id="text_9">
    <!-- 15 -->
    <g transform="translate(149.127955 239.84483) scale(0.1 -0.1)">
     <defs>
      <path id="DejaVuSans-35" d="M 691 4666 
L 3169 4666 
L 3169 4134 
L 1269 4134 
L 1269 2991 
Q 1406 3038 1543 3061 
Q 1681 3084 1819 3084 
Q 2600 3084 3056 2656 
Q 3513 2228 3513 1497 
Q 3513 744 3044 326 
Q 2575 -91 1722 -91 
Q 1428 -91 1123 -41 
Q 819 9 494 109 
L 494 744 
Q 775 591 1075 516 
Q 1375 441 1709 441 
Q 2250 441 2565 725 
Q 2881 1009 2881 1497 
Q 2881 1984 2565 2268 
Q 2250 2553 1709 2553 
Q 1456 2553 1204 2497 
Q 953 2441 691 2322 
L 691 4666 
z
" transform="scale(0.015625)"/>
     </defs>
     <use xlink:href="#DejaVuSans-31"/>
     <use xlink:href="#DejaVuSans-35" x="63.623047"/>
    </g>
   </g>
   <g id="text_10">
    <!-- 11 -->
    <g transform="translate(149.127955 159.979375) scale(0.1 -0.1)">
     <use xlink:href="#DejaVuSans-31"/>
     <use xlink:href="#DejaVuSans-31" x="63.623047"/>
    </g>
   </g>
   <g id="text_11">
    <!-- 8 -->
    <g transform="translate(152.309205 80.11392) scale(0.1 -0.1)">
     <defs>
      <path id="DejaVuSans-38" d="M 2034 2216 
Q 1584 2216 1326 1975 
Q 1069 1734 1069 1313 
Q 1069 891 1326 650 
Q 1584 409 2034 409 
Q 2484 409 2743 651 
Q 3003 894 3003 1313 
Q 3003 1734 2745 1975 
Q 2488 2216 2034 2216 
z
M 1403 2484 
Q 997 2584 770 2862 
Q 544 3141 544 3541 
Q 544 4100 942 4425 
Q 1341 4750 2034 4750 
Q 2731 4750 3128 4425 
Q 3525 4100 3525 3541 
Q 3525 3141 3298 2862 
Q 3072 2584 2669 2484 
Q 3125 2378 3379 2068 
Q 3634 1759 3634 1313 
Q 3634 634 3220 271 
Q 2806 -91 2034 -91 
Q 1263 -91 848 271 
Q 434 634 434 1313 
Q 434 1759 690 2068 
Q 947 2378 1403 2484 
z
M 1172 3481 
Q 1172 3119 1398 2916 
Q 1625 2713 2034 2713 
Q 2441 2713 2670 2916 
Q 2900 3119 2900 3481 
Q 2900 3844 2670 4047 
Q 2441 4250 2034 4250 
Q 1625 4250 1398 4047 
Q 1172 3844 1172 3481 
z
" transform="scale(0.015625)"/>
     </defs>
     <use xlink:href="#DejaVuSans-38"/>
    </g>
   </g>
   <g id="text_12">
    <!-- 15 -->
    <g transform="translate(253.0725 239.84483) scale(0.1 -0.1)">
     <use xlink:href="#DejaVuSans-31"/>
     <use xlink:href="#DejaVuSans-35" x="63.623047"/>
    </g>
   </g>
   <g id="text_13">
    <!-- 11 -->
    <g transform="translate(253.0725 159.979375) scale(0.1 -0.1)">
     <use xlink:href="#DejaVuSans-31"/>
     <use xlink:href="#DejaVuSans-31" x="63.623047"/>
    </g>
   </g>
   <g id="text_14">
    <!-- 7 -->
    <g transform="translate(256.25375 80.11392) scale(0.1 -0.1)">
     <defs>
      <path id="DejaVuSans-37" d="M 525 4666 
L 3525 4666 
L 3525 4397 
L 1831 0 
L 1172 0 
L 2766 4134 
L 525 4134 
L 525 4666 
z
" transform="scale(0.015625)"/>
     </defs>
     <use xlink:href="#DejaVuSans-37"/>
    </g>
   </g>
   <g id="text_15">
    <!-- 13 -->
    <g transform="translate(357.017045 239.84483) scale(0.1 -0.1)">
     <defs>
      <path id="DejaVuSans-33" d="M 2597 2516 
Q 3050 2419 3304 2112 
Q 3559 1806 3559 1356 
Q 3559 666 3084 287 
Q 2609 -91 1734 -91 
Q 1441 -91 1130 -33 
Q 819 25 488 141 
L 488 750 
Q 750 597 1062 519 
Q 1375 441 1716 441 
Q 2309 441 2620 675 
Q 2931 909 2931 1356 
Q 2931 1769 2642 2001 
Q 2353 2234 1838 2234 
L 1294 2234 
L 1294 2753 
L 1863 2753 
Q 2328 2753 2575 2939 
Q 2822 3125 2822 3475 
Q 2822 3834 2567 4026 
Q 2313 4219 1838 4219 
Q 1578 4219 1281 4162 
Q 984 4106 628 3988 
L 628 4550 
Q 988 4650 1302 4700 
Q 1616 4750 1894 4750 
Q 2613 4750 3031 4423 
Q 3450 4097 3450 3541 
Q 3450 3153 3228 2886 
Q 3006 2619 2597 2516 
z
" transform="scale(0.015625)"/>
     </defs>
     <use xlink:href="#DejaVuSans-31"/>
     <use xlink:href="#DejaVuSans-33" x="63.623047"/>
    </g>
   </g>
   <g id="text_16">
    <!-- 8 -->
    <g transform="translate(360.198295 159.979375) scale(0.1 -0.1)">
     <use xlink:href="#DejaVuSans-38"/>
    </g>
   </g>
   <g id="text_17">
    <!-- 12 -->
    <g transform="translate(357.017045 80.11392) scale(0.1 -0.1)">
     <use xlink:href="#DejaVuSans-31"/>
     <use xlink:href="#DejaVuSans-32" x="63.623047"/>
    </g>
   </g>
  </g>
 </g>
 <defs>
  <clipPath id="pa4b824850a">
   <rect x="68.87" y="10.8" width="381.13" height="292.84"/>
  </clipPath>
 </defs>
</svg>
