<?xml version="1.0" encoding="utf-8" standalone="no"?>
<!DOCTYPE svg PUBLIC "-//W3C//DTD SVG 1.1//EN"
  "http://www.w3.org/Graphics/SVG/1.1/DTD/svg11.dtd">
<svg xmlns:xlink="http://www.w3.org/1999/xlink" width="460.8pt" height="345.6pt" viewBox="0 0 460.8 345.6" xmlns="http://www.w3.org/2000/svg" version="1.1">
 <metadata>
  <rdf:RDF xmlns:dc="http://purl.org/dc/elements/1.1/" xmlns:cc="http://creativecommons.org/ns#" xmlns:rdf="http://www.w3.org/1999/02/22-rdf-syntax-ns#">
   <cc:Work>
    <dc:type rdf:resource="http://purl.org/dc/dcmitype/StillImage"/>
    <dc:date>2024-07-03T10:34:09.628157</dc:date>
    <dc:format>image/svg+xml</dc:format>
    <dc:creator>
     <cc:Agent>
      <dc:title>Matplotlib v3.8.3, https://matplotlib.org/</dc:title>
     </cc:Agent>
    </dc:creator>
   </cc:Work>
  </rdf:RDF>
 </metadata>
 <defs>
  <style type="text/css">*{stroke-linejoin: round; stroke-linecap: butt}</style>
 </defs>
 <g id="figure_1">
  <g id="patch_1">
   <path d="M 0 345.6 
L 460.8 345.6 
L 460.8 0 
L 0 0 
z
" style="fill: #ffffff"/>
  </g>
  <g id="axes_1">
   <g id="patch_2">
    <path d="M 68.87 303.64 
L 450 303.64 
L 450 26.88 
L 68.87 26.88 
z
" style="fill: #ffffff"/>
   </g>
   <g id="PathCollection_1">
    <path d="M 155.490455 256.551388 
C 159.683684 256.551388 163.705734 254.885401 166.670794 251.92034 
C 169.635855 248.955279 171.301843 244.933229 171.301843 240.74 
C 171.301843 236.546771 169.635855 232.524721 166.670794 229.55966 
C 163.705734 226.594599 159.683684 224.928612 155.490455 224.928612 
C 151.297225 224.928612 147.275175 226.594599 144.310115 229.55966 
C 141.345054 232.524721 139.679066 236.546771 139.679066 240.74 
C 139.679066 244.933229 141.345054 248.955279 144.310115 251.92034 
C 147.275175 254.885401 151.297225 256.551388 155.490455 256.551388 
z
" clip-path="url(#p0a0ea84f0f)" style="fill: #1f77b4"/>
    <path d="M 155.490455 165.26 
C 155.490455 165.26 155.490455 165.26 155.490455 165.26 
C 155.490455 165.26 155.490455 165.26 155.490455 165.26 
C 155.490455 165.26 155.490455 165.26 155.490455 165.26 
C 155.490455 165.26 155.490455 165.26 155.490455 165.26 
C 155.490455 165.26 155.490455 165.26 155.490455 165.26 
C 155.490455 165.26 155.490455 165.26 155.490455 165.26 
C 155.490455 165.26 155.490455 165.26 155.490455 165.26 
C 155.490455 165.26 155.490455 165.26 155.490455 165.26 
z
" clip-path="url(#p0a0ea84f0f)" style="fill: #1f77b4"/>
    <path d="M 155.490455 89.78 
C 155.490455 89.78 155.490455 89.78 155.490455 89.78 
C 155.490455 89.78 155.490455 89.78 155.490455 89.78 
C 155.490455 89.78 155.490455 89.78 155.490455 89.78 
C 155.490455 89.78 155.490455 89.78 155.490455 89.78 
C 155.490455 89.78 155.490455 89.78 155.490455 89.78 
C 155.490455 89.78 155.490455 89.78 155.490455 89.78 
C 155.490455 89.78 155.490455 89.78 155.490455 89.78 
C 155.490455 89.78 155.490455 89.78 155.490455 89.78 
z
" clip-path="url(#p0a0ea84f0f)" style="fill: #1f77b4"/>
    <path d="M 259.435 256.551388 
C 263.628229 256.551388 267.650279 254.885401 270.61534 251.92034 
C 273.580401 248.955279 275.246388 244.933229 275.246388 240.74 
C 275.246388 236.546771 273.580401 232.524721 270.61534 229.55966 
C 267.650279 226.594599 263.628229 224.928612 259.435 224.928612 
C 255.241771 224.928612 251.219721 226.594599 248.25466 229.55966 
C 245.289599 232.524721 243.623612 236.546771 243.623612 240.74 
C 243.623612 244.933229 245.289599 248.955279 248.25466 251.92034 
C 251.219721 254.885401 255.241771 256.551388 259.435 256.551388 
z
" clip-path="url(#p0a0ea84f0f)" style="fill: #1f77b4"/>
    <path d="M 259.435 165.26 
C 259.435 165.26 259.435 165.26 259.435 165.26 
C 259.435 165.26 259.435 165.26 259.435 165.26 
C 259.435 165.26 259.435 165.26 259.435 165.26 
C 259.435 165.26 259.435 165.26 259.435 165.26 
C 259.435 165.26 259.435 165.26 259.435 165.26 
C 259.435 165.26 259.435 165.26 259.435 165.26 
C 259.435 165.26 259.435 165.26 259.435 165.26 
C 259.435 165.26 259.435 165.26 259.435 165.26 
z
" clip-path="url(#p0a0ea84f0f)" style="fill: #1f77b4"/>
    <path d="M 259.435 121.402777 
C 267.821458 121.402777 275.865558 118.070801 281.79568 112.14068 
C 287.725801 106.210558 291.057777 98.166458 291.057777 89.78 
C 291.057777 81.393542 287.725801 73.349442 281.79568 67.41932 
C 275.865558 61.489199 267.821458 58.157223 259.435 58.157223 
C 251.048542 58.157223 243.004442 61.489199 237.07432 67.41932 
C 231.144199 73.349442 227.812223 81.393542 227.812223 89.78 
C 227.812223 98.166458 231.144199 106.210558 237.07432 112.14068 
C 243.004442 118.070801 251.048542 121.402777 259.435 121.402777 
z
" clip-path="url(#p0a0ea84f0f)" style="fill: #1f77b4"/>
    <path d="M 363.379545 240.74 
C 363.379545 240.74 363.379545 240.74 363.379545 240.74 
C 363.379545 240.74 363.379545 240.74 363.379545 240.74 
C 363.379545 240.74 363.379545 240.74 363.379545 240.74 
C 363.379545 240.74 363.379545 240.74 363.379545 240.74 
C 363.379545 240.74 363.379545 240.74 363.379545 240.74 
C 363.379545 240.74 363.379545 240.74 363.379545 240.74 
C 363.379545 240.74 363.379545 240.74 363.379545 240.74 
C 363.379545 240.74 363.379545 240.74 363.379545 240.74 
z
" clip-path="url(#p0a0ea84f0f)" style="fill: #1f77b4"/>
    <path d="M 363.379545 187.62068 
C 369.309667 187.62068 374.997705 185.264617 379.190934 181.071388 
C 383.384163 176.878159 385.740225 171.190122 385.740225 165.26 
C 385.740225 159.329878 383.384163 153.641841 379.190934 149.448612 
C 374.997705 145.255383 369.309667 142.89932 363.379545 142.89932 
C 357.449424 142.89932 351.761386 145.255383 347.568157 149.448612 
C 343.374928 153.641841 341.018866 159.329878 341.018866 165.26 
C 341.018866 171.190122 343.374928 176.878159 347.568157 181.071388 
C 351.761386 185.264617 357.449424 187.62068 363.379545 187.62068 
z
" clip-path="url(#p0a0ea84f0f)" style="fill: #1f77b4"/>
    <path d="M 363.379545 112.14068 
C 369.309667 112.14068 374.997705 109.784617 379.190934 105.591388 
C 383.384163 101.398159 385.740225 95.710122 385.740225 89.78 
C 385.740225 83.849878 383.384163 78.161841 379.190934 73.968612 
C 374.997705 69.775383 369.309667 67.41932 363.379545 67.41932 
C 357.449424 67.41932 351.761386 69.775383 347.568157 73.968612 
C 343.374928 78.161841 341.018866 83.849878 341.018866 89.78 
C 341.018866 95.710122 343.374928 101.398159 347.568157 105.591388 
C 351.761386 109.784617 357.449424 112.14068 363.379545 112.14068 
z
" clip-path="url(#p0a0ea84f0f)" style="fill: #1f77b4"/>
   </g>
   <g id="matplotlib.axis_1">
    <g id="xtick_1">
     <g id="line2d_1">
      <defs>
       <path id="m7e592aab4f" d="M 0 0 
L 0 3.5 
" style="stroke: #000000; stroke-width: 0.8"/>
      </defs>
      <g>
       <use xlink:href="#m7e592aab4f" x="155.490455" y="303.64" style="stroke: #000000; stroke-width: 0.8"/>
      </g>
     </g>
     <g id="text_1">
      <!-- Apple -->
      <g transform="translate(141.25608 318.238437) scale(0.1 -0.1)">
       <defs>
        <path id="DejaVuSans-41" d="M 2188 4044 
L 1331 1722 
L 3047 1722 
L 2188 4044 
z
M 1831 4666 
L 2547 4666 
L 4325 0 
L 3669 0 
L 3244 1197 
L 1141 1197 
L 716 0 
L 50 0 
L 1831 4666 
z
" transform="scale(0.015625)"/>
        <path id="DejaVuSans-70" d="M 1159 525 
L 1159 -1331 
L 581 -1331 
L 581 3500 
L 1159 3500 
L 1159 2969 
Q 1341 3281 1617 3432 
Q 1894 3584 2278 3584 
Q 2916 3584 3314 3078 
Q 3713 2572 3713 1747 
Q 3713 922 3314 415 
Q 2916 -91 2278 -91 
Q 1894 -91 1617 61 
Q 1341 213 1159 525 
z
M 3116 1747 
Q 3116 2381 2855 2742 
Q 2594 3103 2138 3103 
Q 1681 3103 1420 2742 
Q 1159 2381 1159 1747 
Q 1159 1113 1420 752 
Q 1681 391 2138 391 
Q 2594 391 2855 752 
Q 3116 1113 3116 1747 
z
" transform="scale(0.015625)"/>
        <path id="DejaVuSans-6c" d="M 603 4863 
L 1178 4863 
L 1178 0 
L 603 0 
L 603 4863 
z
" transform="scale(0.015625)"/>
        <path id="DejaVuSans-65" d="M 3597 1894 
L 3597 1613 
L 953 1613 
Q 991 1019 1311 708 
Q 1631 397 2203 397 
Q 2534 397 2845 478 
Q 3156 559 3463 722 
L 3463 178 
Q 3153 47 2828 -22 
Q 2503 -91 2169 -91 
Q 1331 -91 842 396 
Q 353 884 353 1716 
Q 353 2575 817 3079 
Q 1281 3584 2069 3584 
Q 2775 3584 3186 3129 
Q 3597 2675 3597 1894 
z
M 3022 2063 
Q 3016 2534 2758 2815 
Q 2500 3097 2075 3097 
Q 1594 3097 1305 2825 
Q 1016 2553 972 2059 
L 3022 2063 
z
" transform="scale(0.015625)"/>
       </defs>
       <use xlink:href="#DejaVuSans-41"/>
       <use xlink:href="#DejaVuSans-70" x="68.408203"/>
       <use xlink:href="#DejaVuSans-70" x="131.884766"/>
       <use xlink:href="#DejaVuSans-6c" x="195.361328"/>
       <use xlink:href="#DejaVuSans-65" x="223.144531"/>
      </g>
     </g>
    </g>
    <g id="xtick_2">
     <g id="line2d_2">
      <g>
       <use xlink:href="#m7e592aab4f" x="259.435" y="303.64" style="stroke: #000000; stroke-width: 0.8"/>
      </g>
     </g>
     <g id="text_2">
      <!-- Orange -->
      <g transform="translate(240.96 318.238437) scale(0.1 -0.1)">
       <defs>
        <path id="DejaVuSans-4f" d="M 2522 4238 
Q 1834 4238 1429 3725 
Q 1025 3213 1025 2328 
Q 1025 1447 1429 934 
Q 1834 422 2522 422 
Q 3209 422 3611 934 
Q 4013 1447 4013 2328 
Q 4013 3213 3611 3725 
Q 3209 4238 2522 4238 
z
M 2522 4750 
Q 3503 4750 4090 4092 
Q 4678 3434 4678 2328 
Q 4678 1225 4090 567 
Q 3503 -91 2522 -91 
Q 1538 -91 948 565 
Q 359 1222 359 2328 
Q 359 3434 948 4092 
Q 1538 4750 2522 4750 
z
" transform="scale(0.015625)"/>
        <path id="DejaVuSans-72" d="M 2631 2963 
Q 2534 3019 2420 3045 
Q 2306 3072 2169 3072 
Q 1681 3072 1420 2755 
Q 1159 2438 1159 1844 
L 1159 0 
L 581 0 
L 581 3500 
L 1159 3500 
L 1159 2956 
Q 1341 3275 1631 3429 
Q 1922 3584 2338 3584 
Q 2397 3584 2469 3576 
Q 2541 3569 2628 3553 
L 2631 2963 
z
" transform="scale(0.015625)"/>
        <path id="DejaVuSans-61" d="M 2194 1759 
Q 1497 1759 1228 1600 
Q 959 1441 959 1056 
Q 959 750 1161 570 
Q 1363 391 1709 391 
Q 2188 391 2477 730 
Q 2766 1069 2766 1631 
L 2766 1759 
L 2194 1759 
z
M 3341 1997 
L 3341 0 
L 2766 0 
L 2766 531 
Q 2569 213 2275 61 
Q 1981 -91 1556 -91 
Q 1019 -91 701 211 
Q 384 513 384 1019 
Q 384 1609 779 1909 
Q 1175 2209 1959 2209 
L 2766 2209 
L 2766 2266 
Q 2766 2663 2505 2880 
Q 2244 3097 1772 3097 
Q 1472 3097 1187 3025 
Q 903 2953 641 2809 
L 641 3341 
Q 956 3463 1253 3523 
Q 1550 3584 1831 3584 
Q 2591 3584 2966 3190 
Q 3341 2797 3341 1997 
z
" transform="scale(0.015625)"/>
        <path id="DejaVuSans-6e" d="M 3513 2113 
L 3513 0 
L 2938 0 
L 2938 2094 
Q 2938 2591 2744 2837 
Q 2550 3084 2163 3084 
Q 1697 3084 1428 2787 
Q 1159 2491 1159 1978 
L 1159 0 
L 581 0 
L 581 3500 
L 1159 3500 
L 1159 2956 
Q 1366 3272 1645 3428 
Q 1925 3584 2291 3584 
Q 2894 3584 3203 3211 
Q 3513 2838 3513 2113 
z
" transform="scale(0.015625)"/>
        <path id="DejaVuSans-67" d="M 2906 1791 
Q 2906 2416 2648 2759 
Q 2391 3103 1925 3103 
Q 1463 3103 1205 2759 
Q 947 2416 947 1791 
Q 947 1169 1205 825 
Q 1463 481 1925 481 
Q 2391 481 2648 825 
Q 2906 1169 2906 1791 
z
M 3481 434 
Q 3481 -459 3084 -895 
Q 2688 -1331 1869 -1331 
Q 1566 -1331 1297 -1286 
Q 1028 -1241 775 -1147 
L 775 -588 
Q 1028 -725 1275 -790 
Q 1522 -856 1778 -856 
Q 2344 -856 2625 -561 
Q 2906 -266 2906 331 
L 2906 616 
Q 2728 306 2450 153 
Q 2172 0 1784 0 
Q 1141 0 747 490 
Q 353 981 353 1791 
Q 353 2603 747 3093 
Q 1141 3584 1784 3584 
Q 2172 3584 2450 3431 
Q 2728 3278 2906 2969 
L 2906 3500 
L 3481 3500 
L 3481 434 
z
" transform="scale(0.015625)"/>
       </defs>
       <use xlink:href="#DejaVuSans-4f"/>
       <use xlink:href="#DejaVuSans-72" x="78.710938"/>
       <use xlink:href="#DejaVuSans-61" x="119.824219"/>
       <use xlink:href="#DejaVuSans-6e" x="181.103516"/>
       <use xlink:href="#DejaVuSans-67" x="244.482422"/>
       <use xlink:href="#DejaVuSans-65" x="307.958984"/>
      </g>
     </g>
    </g>
    <g id="xtick_3">
     <g id="line2d_3">
      <g>
       <use xlink:href="#m7e592aab4f" x="363.379545" y="303.64" style="stroke: #000000; stroke-width: 0.8"/>
      </g>
     </g>
     <g id="text_3">
      <!-- Pear -->
      <g transform="translate(352.349858 318.238437) scale(0.1 -0.1)">
       <defs>
        <path id="DejaVuSans-50" d="M 1259 4147 
L 1259 2394 
L 2053 2394 
Q 2494 2394 2734 2622 
Q 2975 2850 2975 3272 
Q 2975 3691 2734 3919 
Q 2494 4147 2053 4147 
L 1259 4147 
z
M 628 4666 
L 2053 4666 
Q 2838 4666 3239 4311 
Q 3641 3956 3641 3272 
Q 3641 2581 3239 2228 
Q 2838 1875 2053 1875 
L 1259 1875 
L 1259 0 
L 628 0 
L 628 4666 
z
" transform="scale(0.015625)"/>
       </defs>
       <use xlink:href="#DejaVuSans-50"/>
       <use xlink:href="#DejaVuSans-65" x="56.677734"/>
       <use xlink:href="#DejaVuSans-61" x="118.201172"/>
       <use xlink:href="#DejaVuSans-72" x="179.480469"/>
      </g>
     </g>
    </g>
    <g id="text_4">
     <!-- Rater 1 -->
     <g transform="translate(241.146719 331.916562) scale(0.1 -0.1)">
      <defs>
       <path id="DejaVuSans-52" d="M 2841 2188 
Q 3044 2119 3236 1894 
Q 3428 1669 3622 1275 
L 4263 0 
L 3584 0 
L 2988 1197 
Q 2756 1666 2539 1819 
Q 2322 1972 1947 1972 
L 1259 1972 
L 1259 0 
L 628 0 
L 628 4666 
L 2053 4666 
Q 2853 4666 3247 4331 
Q 3641 3997 3641 3322 
Q 3641 2881 3436 2590 
Q 3231 2300 2841 2188 
z
M 1259 4147 
L 1259 2491 
L 2053 2491 
Q 2509 2491 2742 2702 
Q 2975 2913 2975 3322 
Q 2975 3731 2742 3939 
Q 2509 4147 2053 4147 
L 1259 4147 
z
" transform="scale(0.015625)"/>
       <path id="DejaVuSans-74" d="M 1172 4494 
L 1172 3500 
L 2356 3500 
L 2356 3053 
L 1172 3053 
L 1172 1153 
Q 1172 725 1289 603 
Q 1406 481 1766 481 
L 2356 481 
L 2356 0 
L 1766 0 
Q 1100 0 847 248 
Q 594 497 594 1153 
L 594 3053 
L 172 3053 
L 172 3500 
L 594 3500 
L 594 4494 
L 1172 4494 
z
" transform="scale(0.015625)"/>
       <path id="DejaVuSans-20" transform="scale(0.015625)"/>
       <path id="DejaVuSans-31" d="M 794 531 
L 1825 531 
L 1825 4091 
L 703 3866 
L 703 4441 
L 1819 4666 
L 2450 4666 
L 2450 531 
L 3481 531 
L 3481 0 
L 794 0 
L 794 531 
z
" transform="scale(0.015625)"/>
      </defs>
      <use xlink:href="#DejaVuSans-52"/>
      <use xlink:href="#DejaVuSans-61" x="67.232422"/>
      <use xlink:href="#DejaVuSans-74" x="128.511719"/>
      <use xlink:href="#DejaVuSans-65" x="167.720703"/>
      <use xlink:href="#DejaVuSans-72" x="229.244141"/>
      <use xlink:href="#DejaVuSans-20" x="270.357422"/>
      <use xlink:href="#DejaVuSans-31" x="302.144531"/>
     </g>
    </g>
   </g>
   <g id="matplotlib.axis_2">
    <g id="ytick_1">
     <g id="line2d_4">
      <defs>
       <path id="m345cebeab2" d="M 0 0 
L -3.5 0 
" style="stroke: #000000; stroke-width: 0.8"/>
      </defs>
      <g>
       <use xlink:href="#m345cebeab2" x="68.87" y="240.74" style="stroke: #000000; stroke-width: 0.8"/>
      </g>
     </g>
     <g id="text_5">
      <!-- Apple -->
      <g transform="translate(33.40125 244.539219) scale(0.1 -0.1)">
       <use xlink:href="#DejaVuSans-41"/>
       <use xlink:href="#DejaVuSans-70" x="68.408203"/>
       <use xlink:href="#DejaVuSans-70" x="131.884766"/>
       <use xlink:href="#DejaVuSans-6c" x="195.361328"/>
       <use xlink:href="#DejaVuSans-65" x="223.144531"/>
      </g>
     </g>
    </g>
    <g id="ytick_2">
     <g id="line2d_5">
      <g>
       <use xlink:href="#m345cebeab2" x="68.87" y="165.26" style="stroke: #000000; stroke-width: 0.8"/>
      </g>
     </g>
     <g id="text_6">
      <!-- Orange -->
      <g transform="translate(24.92 169.059219) scale(0.1 -0.1)">
       <use xlink:href="#DejaVuSans-4f"/>
       <use xlink:href="#DejaVuSans-72" x="78.710938"/>
       <use xlink:href="#DejaVuSans-61" x="119.824219"/>
       <use xlink:href="#DejaVuSans-6e" x="181.103516"/>
       <use xlink:href="#DejaVuSans-67" x="244.482422"/>
       <use xlink:href="#DejaVuSans-65" x="307.958984"/>
      </g>
     </g>
    </g>
    <g id="ytick_3">
     <g id="line2d_6">
      <g>
       <use xlink:href="#m345cebeab2" x="68.87" y="89.78" style="stroke: #000000; stroke-width: 0.8"/>
      </g>
     </g>
     <g id="text_7">
      <!-- Pear -->
      <g transform="translate(39.810625 93.579219) scale(0.1 -0.1)">
       <use xlink:href="#DejaVuSans-50"/>
       <use xlink:href="#DejaVuSans-65" x="56.677734"/>
       <use xlink:href="#DejaVuSans-61" x="118.201172"/>
       <use xlink:href="#DejaVuSans-72" x="179.480469"/>
      </g>
     </g>
    </g>
    <g id="text_8">
     <!-- Rater 2 -->
     <g transform="translate(18.840312 183.548281) rotate(-90) scale(0.1 -0.1)">
      <defs>
       <path id="DejaVuSans-32" d="M 1228 531 
L 3431 531 
L 3431 0 
L 469 0 
L 469 531 
Q 828 903 1448 1529 
Q 2069 2156 2228 2338 
Q 2531 2678 2651 2914 
Q 2772 3150 2772 3378 
Q 2772 3750 2511 3984 
Q 2250 4219 1831 4219 
Q 1534 4219 1204 4116 
Q 875 4013 500 3803 
L 500 4441 
Q 881 4594 1212 4672 
Q 1544 4750 1819 4750 
Q 2544 4750 2975 4387 
Q 3406 4025 3406 3419 
Q 3406 3131 3298 2873 
Q 3191 2616 2906 2266 
Q 2828 2175 2409 1742 
Q 1991 1309 1228 531 
z
" transform="scale(0.015625)"/>
      </defs>
      <use xlink:href="#DejaVuSans-52"/>
      <use xlink:href="#DejaVuSans-61" x="67.232422"/>
      <use xlink:href="#DejaVuSans-74" x="128.511719"/>
      <use xlink:href="#DejaVuSans-65" x="167.720703"/>
      <use xlink:href="#DejaVuSans-72" x="229.244141"/>
      <use xlink:href="#DejaVuSans-20" x="270.357422"/>
      <use xlink:href="#DejaVuSans-32" x="302.144531"/>
     </g>
    </g>
   </g>
   <g id="patch_3">
    <path d="M 68.87 303.64 
L 68.87 26.88 
" style="fill: none; stroke: #000000; stroke-width: 0.8; stroke-linejoin: miter; stroke-linecap: square"/>
   </g>
   <g id="patch_4">
    <path d="M 450 303.64 
L 450 26.88 
" style="fill: none; stroke: #000000; stroke-width: 0.8; stroke-linejoin: miter; stroke-linecap: square"/>
   </g>
   <g id="patch_5">
    <path d="M 68.87 303.64 
L 450 303.64 
" style="fill: none; stroke: #000000; stroke-width: 0.8; stroke-linejoin: miter; stroke-linecap: square"/>
   </g>
   <g id="patch_6">
    <path d="M 68.87 26.88 
L 450 26.88 
" style="fill: none; stroke: #000000; stroke-width: 0.8; stroke-linejoin: miter; stroke-linecap: square"/>
   </g>
   <g id="text_9">
    <!-- 10 -->
    <g transform="translate(149.127955 243.499375) scale(0.1 -0.1)">
     <defs>
      <path id="DejaVuSans-30" d="M 2034 4250 
Q 1547 4250 1301 3770 
Q 1056 3291 1056 2328 
Q 1056 1369 1301 889 
Q 1547 409 2034 409 
Q 2525 409 2770 889 
Q 3016 1369 3016 2328 
Q 3016 3291 2770 3770 
Q 2525 4250 2034 4250 
z
M 2034 4750 
Q 2819 4750 3233 4129 
Q 3647 3509 3647 2328 
Q 3647 1150 3233 529 
Q 2819 -91 2034 -91 
Q 1250 -91 836 529 
Q 422 1150 422 2328 
Q 422 3509 836 4129 
Q 1250 4750 2034 4750 
z
" transform="scale(0.015625)"/>
     </defs>
     <use xlink:href="#DejaVuSans-31"/>
     <use xlink:href="#DejaVuSans-30" x="63.623047"/>
    </g>
   </g>
   <g id="text_10">
    <!-- 0 -->
    <g transform="translate(152.309205 168.019375) scale(0.1 -0.1)">
     <use xlink:href="#DejaVuSans-30"/>
    </g>
   </g>
   <g id="text_11">
    <!-- 0 -->
    <g transform="translate(152.309205 92.539375) scale(0.1 -0.1)">
     <use xlink:href="#DejaVuSans-30"/>
    </g>
   </g>
   <g id="text_12">
    <!-- 10 -->
    <g transform="translate(253.0725 243.499375) scale(0.1 -0.1)">
     <use xlink:href="#DejaVuSans-31"/>
     <use xlink:href="#DejaVuSans-30" x="63.623047"/>
    </g>
   </g>
   <g id="text_13">
    <!-- 0 -->
    <g transform="translate(256.25375 168.019375) scale(0.1 -0.1)">
     <use xlink:href="#DejaVuSans-30"/>
    </g>
   </g>
   <g id="text_14">
    <!-- 40 -->
    <g transform="translate(253.0725 92.539375) scale(0.1 -0.1)">
     <defs>
      <path id="DejaVuSans-34" d="M 2419 4116 
L 825 1625 
L 2419 1625 
L 2419 4116 
z
M 2253 4666 
L 3047 4666 
L 3047 1625 
L 3713 1625 
L 3713 1100 
L 3047 1100 
L 3047 0 
L 2419 0 
L 2419 1100 
L 313 1100 
L 313 1709 
L 2253 4666 
z
" transform="scale(0.015625)"/>
     </defs>
     <use xlink:href="#DejaVuSans-34"/>
     <use xlink:href="#DejaVuSans-30" x="63.623047"/>
    </g>
   </g>
   <g id="text_15">
    <!-- 0 -->
    <g transform="translate(360.198295 243.499375) scale(0.1 -0.1)">
     <use xlink:href="#DejaVuSans-30"/>
    </g>
   </g>
   <g id="text_16">
    <!-- 20 -->
    <g transform="translate(357.017045 168.019375) scale(0.1 -0.1)">
     <use xlink:href="#DejaVuSans-32"/>
     <use xlink:href="#DejaVuSans-30" x="63.623047"/>
    </g>
   </g>
   <g id="text_17">
    <!-- 20 -->
    <g transform="translate(357.017045 92.539375) scale(0.1 -0.1)">
     <use xlink:href="#DejaVuSans-32"/>
     <use xlink:href="#DejaVuSans-30" x="63.623047"/>
    </g>
   </g>
   <g id="text_18">
    <!-- Bubble Plot -->
    <g transform="translate(225.324062 20.88) scale(0.12 -0.12)">
     <defs>
      <path id="DejaVuSans-42" d="M 1259 2228 
L 1259 519 
L 2272 519 
Q 2781 519 3026 730 
Q 3272 941 3272 1375 
Q 3272 1813 3026 2020 
Q 2781 2228 2272 2228 
L 1259 2228 
z
M 1259 4147 
L 1259 2741 
L 2194 2741 
Q 2656 2741 2882 2914 
Q 3109 3088 3109 3444 
Q 3109 3797 2882 3972 
Q 2656 4147 2194 4147 
L 1259 4147 
z
M 628 4666 
L 2241 4666 
Q 2963 4666 3353 4366 
Q 3744 4066 3744 3513 
Q 3744 3084 3544 2831 
Q 3344 2578 2956 2516 
Q 3422 2416 3680 2098 
Q 3938 1781 3938 1306 
Q 3938 681 3513 340 
Q 3088 0 2303 0 
L 628 0 
L 628 4666 
z
" transform="scale(0.015625)"/>
      <path id="DejaVuSans-75" d="M 544 1381 
L 544 3500 
L 1119 3500 
L 1119 1403 
Q 1119 906 1312 657 
Q 1506 409 1894 409 
Q 2359 409 2629 706 
Q 2900 1003 2900 1516 
L 2900 3500 
L 3475 3500 
L 3475 0 
L 2900 0 
L 2900 538 
Q 2691 219 2414 64 
Q 2138 -91 1772 -91 
Q 1169 -91 856 284 
Q 544 659 544 1381 
z
M 1991 3584 
L 1991 3584 
z
" transform="scale(0.015625)"/>
      <path id="DejaVuSans-62" d="M 3116 1747 
Q 3116 2381 2855 2742 
Q 2594 3103 2138 3103 
Q 1681 3103 1420 2742 
Q 1159 2381 1159 1747 
Q 1159 1113 1420 752 
Q 1681 391 2138 391 
Q 2594 391 2855 752 
Q 3116 1113 3116 1747 
z
M 1159 2969 
Q 1341 3281 1617 3432 
Q 1894 3584 2278 3584 
Q 2916 3584 3314 3078 
Q 3713 2572 3713 1747 
Q 3713 922 3314 415 
Q 2916 -91 2278 -91 
Q 1894 -91 1617 61 
Q 1341 213 1159 525 
L 1159 0 
L 581 0 
L 581 4863 
L 1159 4863 
L 1159 2969 
z
" transform="scale(0.015625)"/>
      <path id="DejaVuSans-6f" d="M 1959 3097 
Q 1497 3097 1228 2736 
Q 959 2375 959 1747 
Q 959 1119 1226 758 
Q 1494 397 1959 397 
Q 2419 397 2687 759 
Q 2956 1122 2956 1747 
Q 2956 2369 2687 2733 
Q 2419 3097 1959 3097 
z
M 1959 3584 
Q 2709 3584 3137 3096 
Q 3566 2609 3566 1747 
Q 3566 888 3137 398 
Q 2709 -91 1959 -91 
Q 1206 -91 779 398 
Q 353 888 353 1747 
Q 353 2609 779 3096 
Q 1206 3584 1959 3584 
z
" transform="scale(0.015625)"/>
     </defs>
     <use xlink:href="#DejaVuSans-42"/>
     <use xlink:href="#DejaVuSans-75" x="68.603516"/>
     <use xlink:href="#DejaVuSans-62" x="131.982422"/>
     <use xlink:href="#DejaVuSans-62" x="195.458984"/>
     <use xlink:href="#DejaVuSans-6c" x="258.935547"/>
     <use xlink:href="#DejaVuSans-65" x="286.71875"/>
     <use xlink:href="#DejaVuSans-20" x="348.242188"/>
     <use xlink:href="#DejaVuSans-50" x="380.029297"/>
     <use xlink:href="#DejaVuSans-6c" x="440.332031"/>
     <use xlink:href="#DejaVuSans-6f" x="468.115234"/>
     <use xlink:href="#DejaVuSans-74" x="529.296875"/>
    </g>
   </g>
  </g>
 </g>
 <defs>
  <clipPath id="p0a0ea84f0f">
   <rect x="68.87" y="26.88" width="381.13" height="276.76"/>
  </clipPath>
 </defs>
</svg>
