<?xml version="1.0" encoding="utf-8" standalone="no"?>
<!DOCTYPE svg PUBLIC "-//W3C//DTD SVG 1.1//EN"
  "http://www.w3.org/Graphics/SVG/1.1/DTD/svg11.dtd">
<svg xmlns:xlink="http://www.w3.org/1999/xlink" width="360pt" height="360pt" viewBox="0 0 360 360" xmlns="http://www.w3.org/2000/svg" version="1.1">
 <metadata>
  <rdf:RDF xmlns:dc="http://purl.org/dc/elements/1.1/" xmlns:cc="http://creativecommons.org/ns#" xmlns:rdf="http://www.w3.org/1999/02/22-rdf-syntax-ns#">
   <cc:Work>
    <dc:type rdf:resource="http://purl.org/dc/dcmitype/StillImage"/>
    <dc:date>2024-07-07T15:13:55.027913</dc:date>
    <dc:format>image/svg+xml</dc:format>
    <dc:creator>
     <cc:Agent>
      <dc:title>Matplotlib v3.8.3, https://matplotlib.org/</dc:title>
     </cc:Agent>
    </dc:creator>
   </cc:Work>
  </rdf:RDF>
 </metadata>
 <defs>
  <style type="text/css">*{stroke-linejoin: round; stroke-linecap: butt}</style>
 </defs>
 <g id="figure_1">
  <g id="patch_1">
   <path d="M 0 360 
L 360 360 
L 360 0 
L 0 0 
z
" style="fill: #ffffff"/>
  </g>
  <g id="axes_1">
   <g id="patch_2">
    <path d="M 68.87 318.04 
L 275.5425 318.04 
L 275.5425 91.84 
L 68.87 91.84 
z
" style="fill: #ffffff"/>
   </g>
   <g id="PathCollection_1">
    <path d="M 97.052614 145.018166 
C 102.975318 145.018166 108.656241 142.665051 112.844225 138.477066 
C 117.03221 134.289082 119.385325 128.608159 119.385325 122.685455 
C 119.385325 116.76275 117.03221 111.081827 112.844225 106.893843 
C 108.656241 102.705858 102.975318 100.352743 97.052614 100.352743 
C 91.129909 100.352743 85.448986 102.705858 81.261002 106.893843 
C 77.073018 111.081827 74.719902 116.76275 74.719902 122.685455 
C 74.719902 128.608159 77.073018 134.289082 81.261002 138.477066 
C 85.448986 142.665051 91.129909 145.018166 97.052614 145.018166 
z
" clip-path="url(#p4ad2bfe0fb)" style="fill: #1f77b4; stroke: #ffffff; stroke-width: 2.576696"/>
    <path d="M 97.052614 224.064591 
C 102.124515 224.064591 106.989366 222.049504 110.575742 218.463128 
C 114.162118 214.876753 116.177205 210.011901 116.177205 204.94 
C 116.177205 199.868099 114.162118 195.003247 110.575742 191.416872 
C 106.989366 187.830496 102.124515 185.815409 97.052614 185.815409 
C 91.980713 185.815409 87.115861 187.830496 83.529485 191.416872 
C 79.94311 195.003247 77.928022 199.868099 77.928022 204.94 
C 77.928022 210.011901 79.94311 214.876753 83.529485 218.463128 
C 87.115861 222.049504 91.980713 224.064591 97.052614 224.064591 
z
" clip-path="url(#p4ad2bfe0fb)" style="fill: #ff7f0e; stroke: #ffffff; stroke-width: 2.576696"/>
    <path d="M 97.052614 303.504052 
C 101.377945 303.504052 105.526705 301.785579 108.585176 298.727108 
C 111.643648 295.668637 113.36212 291.519877 113.36212 287.194545 
C 113.36212 282.869214 111.643648 278.720454 108.585176 275.661983 
C 105.526705 272.603512 101.377945 270.885039 97.052614 270.885039 
C 92.727282 270.885039 88.578522 272.603512 85.520051 275.661983 
C 82.46158 278.720454 80.743107 282.869214 80.743107 287.194545 
C 80.743107 291.519877 82.46158 295.668637 85.520051 298.727108 
C 88.578522 301.785579 92.727282 303.504052 97.052614 303.504052 
z
" clip-path="url(#p4ad2bfe0fb)" style="fill: #ff7f0e; stroke: #ffffff; stroke-width: 2.576696"/>
    <path d="M 172.20625 145.018166 
C 178.128954 145.018166 183.809877 142.665051 187.997862 138.477066 
C 192.185846 134.289082 194.538961 128.608159 194.538961 122.685455 
C 194.538961 116.76275 192.185846 111.081827 187.997862 106.893843 
C 183.809877 102.705858 178.128954 100.352743 172.20625 100.352743 
C 166.283546 100.352743 160.602623 102.705858 156.414638 106.893843 
C 152.226654 111.081827 149.873539 116.76275 149.873539 122.685455 
C 149.873539 128.608159 152.226654 134.289082 156.414638 138.477066 
C 160.602623 142.665051 166.283546 145.018166 172.20625 145.018166 
z
" clip-path="url(#p4ad2bfe0fb)" style="fill: #ff7f0e; stroke: #ffffff; stroke-width: 2.576696"/>
    <path d="M 172.20625 224.064591 
C 177.278151 224.064591 182.143003 222.049504 185.729378 218.463128 
C 189.315754 214.876753 191.330841 210.011901 191.330841 204.94 
C 191.330841 199.868099 189.315754 195.003247 185.729378 191.416872 
C 182.143003 187.830496 177.278151 185.815409 172.20625 185.815409 
C 167.134349 185.815409 162.269497 187.830496 158.683122 191.416872 
C 155.096746 195.003247 153.081659 199.868099 153.081659 204.94 
C 153.081659 210.011901 155.096746 214.876753 158.683122 218.463128 
C 162.269497 222.049504 167.134349 224.064591 172.20625 224.064591 
z
" clip-path="url(#p4ad2bfe0fb)" style="fill: #1f77b4; stroke: #ffffff; stroke-width: 2.576696"/>
    <path d="M 172.20625 302.450692 
C 176.252227 302.450692 180.133037 300.843208 182.993975 297.98227 
C 185.854912 295.121332 187.462396 291.240523 187.462396 287.194545 
C 187.462396 283.148568 185.854912 279.267759 182.993975 276.406821 
C 180.133037 273.545883 176.252227 271.938399 172.20625 271.938399 
C 168.160273 271.938399 164.279463 273.545883 161.418525 276.406821 
C 158.557588 279.267759 156.950104 283.148568 156.950104 287.194545 
C 156.950104 291.240523 158.557588 295.121332 161.418525 297.98227 
C 164.279463 300.843208 168.160273 302.450692 172.20625 302.450692 
z
" clip-path="url(#p4ad2bfe0fb)" style="fill: #ff7f0e; stroke: #ffffff; stroke-width: 2.576696"/>
    <path d="M 247.359886 143.476077 
C 252.873624 143.476077 258.162276 141.285446 262.061077 137.386645 
C 265.959878 133.487844 268.150509 128.199192 268.150509 122.685455 
C 268.150509 117.171717 265.959878 111.883065 262.061077 107.984264 
C 258.162276 104.085463 252.873624 101.894832 247.359886 101.894832 
C 241.846149 101.894832 236.557497 104.085463 232.658696 107.984264 
C 228.759895 111.883065 226.569263 117.171717 226.569263 122.685455 
C 226.569263 128.199192 228.759895 133.487844 232.658696 137.386645 
C 236.557497 141.285446 241.846149 143.476077 247.359886 143.476077 
z
" clip-path="url(#p4ad2bfe0fb)" style="fill: #ff7f0e; stroke: #ffffff; stroke-width: 2.576696"/>
    <path d="M 247.359886 221.249506 
C 251.685218 221.249506 255.833978 219.531034 258.892449 216.472563 
C 261.95092 213.414091 263.669393 209.265332 263.669393 204.94 
C 263.669393 200.614668 261.95092 196.465909 258.892449 193.407437 
C 255.833978 190.348966 251.685218 188.630494 247.359886 188.630494 
C 243.034555 188.630494 238.885795 190.348966 235.827324 193.407437 
C 232.768852 196.465909 231.05038 200.614668 231.05038 204.94 
C 231.05038 209.265332 232.768852 213.414091 235.827324 216.472563 
C 238.885795 219.531034 243.034555 221.249506 247.359886 221.249506 
z
" clip-path="url(#p4ad2bfe0fb)" style="fill: #ff7f0e; stroke: #ffffff; stroke-width: 2.576696"/>
    <path d="M 247.359886 307.16953 
C 252.657314 307.16953 257.738486 305.064839 261.484333 301.318992 
C 265.23018 297.573145 267.334871 292.491973 267.334871 287.194545 
C 267.334871 281.897118 265.23018 276.815946 261.484333 273.070099 
C 257.738486 269.324251 252.657314 267.219561 247.359886 267.219561 
C 242.062459 267.219561 236.981287 269.324251 233.235439 273.070099 
C 229.489592 276.815946 227.384902 281.897118 227.384902 287.194545 
C 227.384902 292.491973 229.489592 297.573145 233.235439 301.318992 
C 236.981287 305.064839 242.062459 307.16953 247.359886 307.16953 
z
" clip-path="url(#p4ad2bfe0fb)" style="fill: #1f77b4; stroke: #ffffff; stroke-width: 2.576696"/>
   </g>
   <g id="matplotlib.axis_1">
    <g id="xtick_1">
     <g id="line2d_1">
      <defs>
       <path id="m8520d629ad" d="M 0 0 
L 0 3.5 
" style="stroke: #000000; stroke-width: 0.8"/>
      </defs>
      <g>
       <use xlink:href="#m8520d629ad" x="97.052614" y="318.04" style="stroke: #000000; stroke-width: 0.8"/>
      </g>
     </g>
     <g id="text_1">
      <!-- Apple -->
      <g transform="translate(82.818239 332.638438) scale(0.1 -0.1)">
       <defs>
        <path id="DejaVuSans-41" d="M 2188 4044 
L 1331 1722 
L 3047 1722 
L 2188 4044 
z
M 1831 4666 
L 2547 4666 
L 4325 0 
L 3669 0 
L 3244 1197 
L 1141 1197 
L 716 0 
L 50 0 
L 1831 4666 
z
" transform="scale(0.015625)"/>
        <path id="DejaVuSans-70" d="M 1159 525 
L 1159 -1331 
L 581 -1331 
L 581 3500 
L 1159 3500 
L 1159 2969 
Q 1341 3281 1617 3432 
Q 1894 3584 2278 3584 
Q 2916 3584 3314 3078 
Q 3713 2572 3713 1747 
Q 3713 922 3314 415 
Q 2916 -91 2278 -91 
Q 1894 -91 1617 61 
Q 1341 213 1159 525 
z
M 3116 1747 
Q 3116 2381 2855 2742 
Q 2594 3103 2138 3103 
Q 1681 3103 1420 2742 
Q 1159 2381 1159 1747 
Q 1159 1113 1420 752 
Q 1681 391 2138 391 
Q 2594 391 2855 752 
Q 3116 1113 3116 1747 
z
" transform="scale(0.015625)"/>
        <path id="DejaVuSans-6c" d="M 603 4863 
L 1178 4863 
L 1178 0 
L 603 0 
L 603 4863 
z
" transform="scale(0.015625)"/>
        <path id="DejaVuSans-65" d="M 3597 1894 
L 3597 1613 
L 953 1613 
Q 991 1019 1311 708 
Q 1631 397 2203 397 
Q 2534 397 2845 478 
Q 3156 559 3463 722 
L 3463 178 
Q 3153 47 2828 -22 
Q 2503 -91 2169 -91 
Q 1331 -91 842 396 
Q 353 884 353 1716 
Q 353 2575 817 3079 
Q 1281 3584 2069 3584 
Q 2775 3584 3186 3129 
Q 3597 2675 3597 1894 
z
M 3022 2063 
Q 3016 2534 2758 2815 
Q 2500 3097 2075 3097 
Q 1594 3097 1305 2825 
Q 1016 2553 972 2059 
L 3022 2063 
z
" transform="scale(0.015625)"/>
       </defs>
       <use xlink:href="#DejaVuSans-41"/>
       <use xlink:href="#DejaVuSans-70" x="68.408203"/>
       <use xlink:href="#DejaVuSans-70" x="131.884766"/>
       <use xlink:href="#DejaVuSans-6c" x="195.361328"/>
       <use xlink:href="#DejaVuSans-65" x="223.144531"/>
      </g>
     </g>
    </g>
    <g id="xtick_2">
     <g id="line2d_2">
      <g>
       <use xlink:href="#m8520d629ad" x="172.20625" y="318.04" style="stroke: #000000; stroke-width: 0.8"/>
      </g>
     </g>
     <g id="text_2">
      <!-- Orange -->
      <g transform="translate(153.73125 332.638438) scale(0.1 -0.1)">
       <defs>
        <path id="DejaVuSans-4f" d="M 2522 4238 
Q 1834 4238 1429 3725 
Q 1025 3213 1025 2328 
Q 1025 1447 1429 934 
Q 1834 422 2522 422 
Q 3209 422 3611 934 
Q 4013 1447 4013 2328 
Q 4013 3213 3611 3725 
Q 3209 4238 2522 4238 
z
M 2522 4750 
Q 3503 4750 4090 4092 
Q 4678 3434 4678 2328 
Q 4678 1225 4090 567 
Q 3503 -91 2522 -91 
Q 1538 -91 948 565 
Q 359 1222 359 2328 
Q 359 3434 948 4092 
Q 1538 4750 2522 4750 
z
" transform="scale(0.015625)"/>
        <path id="DejaVuSans-72" d="M 2631 2963 
Q 2534 3019 2420 3045 
Q 2306 3072 2169 3072 
Q 1681 3072 1420 2755 
Q 1159 2438 1159 1844 
L 1159 0 
L 581 0 
L 581 3500 
L 1159 3500 
L 1159 2956 
Q 1341 3275 1631 3429 
Q 1922 3584 2338 3584 
Q 2397 3584 2469 3576 
Q 2541 3569 2628 3553 
L 2631 2963 
z
" transform="scale(0.015625)"/>
        <path id="DejaVuSans-61" d="M 2194 1759 
Q 1497 1759 1228 1600 
Q 959 1441 959 1056 
Q 959 750 1161 570 
Q 1363 391 1709 391 
Q 2188 391 2477 730 
Q 2766 1069 2766 1631 
L 2766 1759 
L 2194 1759 
z
M 3341 1997 
L 3341 0 
L 2766 0 
L 2766 531 
Q 2569 213 2275 61 
Q 1981 -91 1556 -91 
Q 1019 -91 701 211 
Q 384 513 384 1019 
Q 384 1609 779 1909 
Q 1175 2209 1959 2209 
L 2766 2209 
L 2766 2266 
Q 2766 2663 2505 2880 
Q 2244 3097 1772 3097 
Q 1472 3097 1187 3025 
Q 903 2953 641 2809 
L 641 3341 
Q 956 3463 1253 3523 
Q 1550 3584 1831 3584 
Q 2591 3584 2966 3190 
Q 3341 2797 3341 1997 
z
" transform="scale(0.015625)"/>
        <path id="DejaVuSans-6e" d="M 3513 2113 
L 3513 0 
L 2938 0 
L 2938 2094 
Q 2938 2591 2744 2837 
Q 2550 3084 2163 3084 
Q 1697 3084 1428 2787 
Q 1159 2491 1159 1978 
L 1159 0 
L 581 0 
L 581 3500 
L 1159 3500 
L 1159 2956 
Q 1366 3272 1645 3428 
Q 1925 3584 2291 3584 
Q 2894 3584 3203 3211 
Q 3513 2838 3513 2113 
z
" transform="scale(0.015625)"/>
        <path id="DejaVuSans-67" d="M 2906 1791 
Q 2906 2416 2648 2759 
Q 2391 3103 1925 3103 
Q 1463 3103 1205 2759 
Q 947 2416 947 1791 
Q 947 1169 1205 825 
Q 1463 481 1925 481 
Q 2391 481 2648 825 
Q 2906 1169 2906 1791 
z
M 3481 434 
Q 3481 -459 3084 -895 
Q 2688 -1331 1869 -1331 
Q 1566 -1331 1297 -1286 
Q 1028 -1241 775 -1147 
L 775 -588 
Q 1028 -725 1275 -790 
Q 1522 -856 1778 -856 
Q 2344 -856 2625 -561 
Q 2906 -266 2906 331 
L 2906 616 
Q 2728 306 2450 153 
Q 2172 0 1784 0 
Q 1141 0 747 490 
Q 353 981 353 1791 
Q 353 2603 747 3093 
Q 1141 3584 1784 3584 
Q 2172 3584 2450 3431 
Q 2728 3278 2906 2969 
L 2906 3500 
L 3481 3500 
L 3481 434 
z
" transform="scale(0.015625)"/>
       </defs>
       <use xlink:href="#DejaVuSans-4f"/>
       <use xlink:href="#DejaVuSans-72" x="78.710938"/>
       <use xlink:href="#DejaVuSans-61" x="119.824219"/>
       <use xlink:href="#DejaVuSans-6e" x="181.103516"/>
       <use xlink:href="#DejaVuSans-67" x="244.482422"/>
       <use xlink:href="#DejaVuSans-65" x="307.958984"/>
      </g>
     </g>
    </g>
    <g id="xtick_3">
     <g id="line2d_3">
      <g>
       <use xlink:href="#m8520d629ad" x="247.359886" y="318.04" style="stroke: #000000; stroke-width: 0.8"/>
      </g>
     </g>
     <g id="text_3">
      <!-- Pear -->
      <g transform="translate(236.330199 332.638438) scale(0.1 -0.1)">
       <defs>
        <path id="DejaVuSans-50" d="M 1259 4147 
L 1259 2394 
L 2053 2394 
Q 2494 2394 2734 2622 
Q 2975 2850 2975 3272 
Q 2975 3691 2734 3919 
Q 2494 4147 2053 4147 
L 1259 4147 
z
M 628 4666 
L 2053 4666 
Q 2838 4666 3239 4311 
Q 3641 3956 3641 3272 
Q 3641 2581 3239 2228 
Q 2838 1875 2053 1875 
L 1259 1875 
L 1259 0 
L 628 0 
L 628 4666 
z
" transform="scale(0.015625)"/>
       </defs>
       <use xlink:href="#DejaVuSans-50"/>
       <use xlink:href="#DejaVuSans-65" x="56.677734"/>
       <use xlink:href="#DejaVuSans-61" x="118.201172"/>
       <use xlink:href="#DejaVuSans-72" x="179.480469"/>
      </g>
     </g>
    </g>
    <g id="text_4">
     <!-- Rater 1 -->
     <g transform="translate(153.917969 346.316563) scale(0.1 -0.1)">
      <defs>
       <path id="DejaVuSans-52" d="M 2841 2188 
Q 3044 2119 3236 1894 
Q 3428 1669 3622 1275 
L 4263 0 
L 3584 0 
L 2988 1197 
Q 2756 1666 2539 1819 
Q 2322 1972 1947 1972 
L 1259 1972 
L 1259 0 
L 628 0 
L 628 4666 
L 2053 4666 
Q 2853 4666 3247 4331 
Q 3641 3997 3641 3322 
Q 3641 2881 3436 2590 
Q 3231 2300 2841 2188 
z
M 1259 4147 
L 1259 2491 
L 2053 2491 
Q 2509 2491 2742 2702 
Q 2975 2913 2975 3322 
Q 2975 3731 2742 3939 
Q 2509 4147 2053 4147 
L 1259 4147 
z
" transform="scale(0.015625)"/>
       <path id="DejaVuSans-74" d="M 1172 4494 
L 1172 3500 
L 2356 3500 
L 2356 3053 
L 1172 3053 
L 1172 1153 
Q 1172 725 1289 603 
Q 1406 481 1766 481 
L 2356 481 
L 2356 0 
L 1766 0 
Q 1100 0 847 248 
Q 594 497 594 1153 
L 594 3053 
L 172 3053 
L 172 3500 
L 594 3500 
L 594 4494 
L 1172 4494 
z
" transform="scale(0.015625)"/>
       <path id="DejaVuSans-20" transform="scale(0.015625)"/>
       <path id="DejaVuSans-31" d="M 794 531 
L 1825 531 
L 1825 4091 
L 703 3866 
L 703 4441 
L 1819 4666 
L 2450 4666 
L 2450 531 
L 3481 531 
L 3481 0 
L 794 0 
L 794 531 
z
" transform="scale(0.015625)"/>
      </defs>
      <use xlink:href="#DejaVuSans-52"/>
      <use xlink:href="#DejaVuSans-61" x="67.232422"/>
      <use xlink:href="#DejaVuSans-74" x="128.511719"/>
      <use xlink:href="#DejaVuSans-65" x="167.720703"/>
      <use xlink:href="#DejaVuSans-72" x="229.244141"/>
      <use xlink:href="#DejaVuSans-20" x="270.357422"/>
      <use xlink:href="#DejaVuSans-31" x="302.144531"/>
     </g>
    </g>
   </g>
   <g id="matplotlib.axis_2">
    <g id="ytick_1">
     <g id="line2d_4">
      <defs>
       <path id="me971a4893e" d="M 0 0 
L -3.5 0 
" style="stroke: #000000; stroke-width: 0.8"/>
      </defs>
      <g>
       <use xlink:href="#me971a4893e" x="68.87" y="122.685455" style="stroke: #000000; stroke-width: 0.8"/>
      </g>
     </g>
     <g id="text_5">
      <!-- Apple -->
      <g transform="translate(33.40125 126.484673) scale(0.1 -0.1)">
       <use xlink:href="#DejaVuSans-41"/>
       <use xlink:href="#DejaVuSans-70" x="68.408203"/>
       <use xlink:href="#DejaVuSans-70" x="131.884766"/>
       <use xlink:href="#DejaVuSans-6c" x="195.361328"/>
       <use xlink:href="#DejaVuSans-65" x="223.144531"/>
      </g>
     </g>
    </g>
    <g id="ytick_2">
     <g id="line2d_5">
      <g>
       <use xlink:href="#me971a4893e" x="68.87" y="204.94" style="stroke: #000000; stroke-width: 0.8"/>
      </g>
     </g>
     <g id="text_6">
      <!-- Orange -->
      <g transform="translate(24.92 208.739219) scale(0.1 -0.1)">
       <use xlink:href="#DejaVuSans-4f"/>
       <use xlink:href="#DejaVuSans-72" x="78.710938"/>
       <use xlink:href="#DejaVuSans-61" x="119.824219"/>
       <use xlink:href="#DejaVuSans-6e" x="181.103516"/>
       <use xlink:href="#DejaVuSans-67" x="244.482422"/>
       <use xlink:href="#DejaVuSans-65" x="307.958984"/>
      </g>
     </g>
    </g>
    <g id="ytick_3">
     <g id="line2d_6">
      <g>
       <use xlink:href="#me971a4893e" x="68.87" y="287.194545" style="stroke: #000000; stroke-width: 0.8"/>
      </g>
     </g>
     <g id="text_7">
      <!-- Pear -->
      <g transform="translate(39.810625 290.993764) scale(0.1 -0.1)">
       <use xlink:href="#DejaVuSans-50"/>
       <use xlink:href="#DejaVuSans-65" x="56.677734"/>
       <use xlink:href="#DejaVuSans-61" x="118.201172"/>
       <use xlink:href="#DejaVuSans-72" x="179.480469"/>
      </g>
     </g>
    </g>
    <g id="text_8">
     <!-- Rater 2 -->
     <g transform="translate(18.840312 223.228281) rotate(-90) scale(0.1 -0.1)">
      <defs>
       <path id="DejaVuSans-32" d="M 1228 531 
L 3431 531 
L 3431 0 
L 469 0 
L 469 531 
Q 828 903 1448 1529 
Q 2069 2156 2228 2338 
Q 2531 2678 2651 2914 
Q 2772 3150 2772 3378 
Q 2772 3750 2511 3984 
Q 2250 4219 1831 4219 
Q 1534 4219 1204 4116 
Q 875 4013 500 3803 
L 500 4441 
Q 881 4594 1212 4672 
Q 1544 4750 1819 4750 
Q 2544 4750 2975 4387 
Q 3406 4025 3406 3419 
Q 3406 3131 3298 2873 
Q 3191 2616 2906 2266 
Q 2828 2175 2409 1742 
Q 1991 1309 1228 531 
z
" transform="scale(0.015625)"/>
      </defs>
      <use xlink:href="#DejaVuSans-52"/>
      <use xlink:href="#DejaVuSans-61" x="67.232422"/>
      <use xlink:href="#DejaVuSans-74" x="128.511719"/>
      <use xlink:href="#DejaVuSans-65" x="167.720703"/>
      <use xlink:href="#DejaVuSans-72" x="229.244141"/>
      <use xlink:href="#DejaVuSans-20" x="270.357422"/>
      <use xlink:href="#DejaVuSans-32" x="302.144531"/>
     </g>
    </g>
   </g>
   <g id="patch_3">
    <path d="M 68.87 318.04 
L 68.87 91.84 
" style="fill: none; stroke: #000000; stroke-width: 0.8; stroke-linejoin: miter; stroke-linecap: square"/>
   </g>
   <g id="patch_4">
    <path d="M 68.87 318.04 
L 275.5425 318.04 
" style="fill: none; stroke: #000000; stroke-width: 0.8; stroke-linejoin: miter; stroke-linecap: square"/>
   </g>
   <g id="text_9">
    <!-- 15 -->
    <g transform="translate(90.690114 125.44483) scale(0.1 -0.1)">
     <defs>
      <path id="DejaVuSans-35" d="M 691 4666 
L 3169 4666 
L 3169 4134 
L 1269 4134 
L 1269 2991 
Q 1406 3038 1543 3061 
Q 1681 3084 1819 3084 
Q 2600 3084 3056 2656 
Q 3513 2228 3513 1497 
Q 3513 744 3044 326 
Q 2575 -91 1722 -91 
Q 1428 -91 1123 -41 
Q 819 9 494 109 
L 494 744 
Q 775 591 1075 516 
Q 1375 441 1709 441 
Q 2250 441 2565 725 
Q 2881 1009 2881 1497 
Q 2881 1984 2565 2268 
Q 2250 2553 1709 2553 
Q 1456 2553 1204 2497 
Q 953 2441 691 2322 
L 691 4666 
z
" transform="scale(0.015625)"/>
     </defs>
     <use xlink:href="#DejaVuSans-31"/>
     <use xlink:href="#DejaVuSans-35" x="63.623047"/>
    </g>
   </g>
   <g id="text_10">
    <!-- 11 -->
    <g transform="translate(90.690114 207.699375) scale(0.1 -0.1)">
     <use xlink:href="#DejaVuSans-31"/>
     <use xlink:href="#DejaVuSans-31" x="63.623047"/>
    </g>
   </g>
   <g id="text_11">
    <!-- 8 -->
    <g transform="translate(93.871364 289.95392) scale(0.1 -0.1)">
     <defs>
      <path id="DejaVuSans-38" d="M 2034 2216 
Q 1584 2216 1326 1975 
Q 1069 1734 1069 1313 
Q 1069 891 1326 650 
Q 1584 409 2034 409 
Q 2484 409 2743 651 
Q 3003 894 3003 1313 
Q 3003 1734 2745 1975 
Q 2488 2216 2034 2216 
z
M 1403 2484 
Q 997 2584 770 2862 
Q 544 3141 544 3541 
Q 544 4100 942 4425 
Q 1341 4750 2034 4750 
Q 2731 4750 3128 4425 
Q 3525 4100 3525 3541 
Q 3525 3141 3298 2862 
Q 3072 2584 2669 2484 
Q 3125 2378 3379 2068 
Q 3634 1759 3634 1313 
Q 3634 634 3220 271 
Q 2806 -91 2034 -91 
Q 1263 -91 848 271 
Q 434 634 434 1313 
Q 434 1759 690 2068 
Q 947 2378 1403 2484 
z
M 1172 3481 
Q 1172 3119 1398 2916 
Q 1625 2713 2034 2713 
Q 2441 2713 2670 2916 
Q 2900 3119 2900 3481 
Q 2900 3844 2670 4047 
Q 2441 4250 2034 4250 
Q 1625 4250 1398 4047 
Q 1172 3844 1172 3481 
z
" transform="scale(0.015625)"/>
     </defs>
     <use xlink:href="#DejaVuSans-38"/>
    </g>
   </g>
   <g id="text_12">
    <!-- 15 -->
    <g transform="translate(165.84375 125.44483) scale(0.1 -0.1)">
     <use xlink:href="#DejaVuSans-31"/>
     <use xlink:href="#DejaVuSans-35" x="63.623047"/>
    </g>
   </g>
   <g id="text_13">
    <!-- 11 -->
    <g transform="translate(165.84375 207.699375) scale(0.1 -0.1)">
     <use xlink:href="#DejaVuSans-31"/>
     <use xlink:href="#DejaVuSans-31" x="63.623047"/>
    </g>
   </g>
   <g id="text_14">
    <!-- 7 -->
    <g transform="translate(169.025 289.95392) scale(0.1 -0.1)">
     <defs>
      <path id="DejaVuSans-37" d="M 525 4666 
L 3525 4666 
L 3525 4397 
L 1831 0 
L 1172 0 
L 2766 4134 
L 525 4134 
L 525 4666 
z
" transform="scale(0.015625)"/>
     </defs>
     <use xlink:href="#DejaVuSans-37"/>
    </g>
   </g>
   <g id="text_15">
    <!-- 13 -->
    <g transform="translate(240.997386 125.44483) scale(0.1 -0.1)">
     <defs>
      <path id="DejaVuSans-33" d="M 2597 2516 
Q 3050 2419 3304 2112 
Q 3559 1806 3559 1356 
Q 3559 666 3084 287 
Q 2609 -91 1734 -91 
Q 1441 -91 1130 -33 
Q 819 25 488 141 
L 488 750 
Q 750 597 1062 519 
Q 1375 441 1716 441 
Q 2309 441 2620 675 
Q 2931 909 2931 1356 
Q 2931 1769 2642 2001 
Q 2353 2234 1838 2234 
L 1294 2234 
L 1294 2753 
L 1863 2753 
Q 2328 2753 2575 2939 
Q 2822 3125 2822 3475 
Q 2822 3834 2567 4026 
Q 2313 4219 1838 4219 
Q 1578 4219 1281 4162 
Q 984 4106 628 3988 
L 628 4550 
Q 988 4650 1302 4700 
Q 1616 4750 1894 4750 
Q 2613 4750 3031 4423 
Q 3450 4097 3450 3541 
Q 3450 3153 3228 2886 
Q 3006 2619 2597 2516 
z
" transform="scale(0.015625)"/>
     </defs>
     <use xlink:href="#DejaVuSans-31"/>
     <use xlink:href="#DejaVuSans-33" x="63.623047"/>
    </g>
   </g>
   <g id="text_16">
    <!-- 8 -->
    <g transform="translate(244.178636 207.699375) scale(0.1 -0.1)">
     <use xlink:href="#DejaVuSans-38"/>
    </g>
   </g>
   <g id="text_17">
    <!-- 12 -->
    <g transform="translate(240.997386 289.95392) scale(0.1 -0.1)">
     <use xlink:href="#DejaVuSans-31"/>
     <use xlink:href="#DejaVuSans-32" x="63.623047"/>
    </g>
   </g>
  </g>
  <g id="axes_2">
   <g id="patch_5">
    <path d="M 68.87 74.92 
L 275.5425 74.92 
L 275.5425 10.8 
L 68.87 10.8 
z
" style="fill: #ffffff"/>
   </g>
   <g id="patch_6">
    <path d="M 78.264205 74.92 
L 115.841023 74.92 
L 115.841023 40.79451 
L 78.264205 40.79451 
z
" clip-path="url(#pa6e23b6270)" style="fill: #ff7f0e; fill-opacity: 0.75; stroke: #000000; stroke-linejoin: miter"/>
   </g>
   <g id="patch_7">
    <path d="M 153.417841 74.92 
L 190.994659 74.92 
L 190.994659 35.406275 
L 153.417841 35.406275 
z
" clip-path="url(#pa6e23b6270)" style="fill: #ff7f0e; fill-opacity: 0.75; stroke: #000000; stroke-linejoin: miter"/>
   </g>
   <g id="patch_8">
    <path d="M 228.571477 74.92 
L 266.148295 74.92 
L 266.148295 37.202353 
L 228.571477 37.202353 
z
" clip-path="url(#pa6e23b6270)" style="fill: #ff7f0e; fill-opacity: 0.75; stroke: #000000; stroke-linejoin: miter"/>
   </g>
   <g id="patch_9">
    <path d="M 78.264205 40.79451 
L 115.841023 40.79451 
L 115.841023 13.853333 
L 78.264205 13.853333 
z
" clip-path="url(#pa6e23b6270)" style="fill: #1f77b4; fill-opacity: 0.75; stroke: #000000; stroke-linejoin: miter"/>
   </g>
   <g id="patch_10">
    <path d="M 153.417841 35.406275 
L 190.994659 35.406275 
L 190.994659 15.649412 
L 153.417841 15.649412 
z
" clip-path="url(#pa6e23b6270)" style="fill: #1f77b4; fill-opacity: 0.75; stroke: #000000; stroke-linejoin: miter"/>
   </g>
   <g id="patch_11">
    <path d="M 228.571477 37.202353 
L 266.148295 37.202353 
L 266.148295 15.649412 
L 228.571477 15.649412 
z
" clip-path="url(#pa6e23b6270)" style="fill: #1f77b4; fill-opacity: 0.75; stroke: #000000; stroke-linejoin: miter"/>
   </g>
   <g id="matplotlib.axis_3">
    <g id="xtick_4">
     <g id="line2d_7">
      <g>
       <use xlink:href="#m8520d629ad" x="97.052614" y="74.92" style="stroke: #000000; stroke-width: 0.8"/>
      </g>
     </g>
    </g>
    <g id="xtick_5">
     <g id="line2d_8">
      <g>
       <use xlink:href="#m8520d629ad" x="172.20625" y="74.92" style="stroke: #000000; stroke-width: 0.8"/>
      </g>
     </g>
    </g>
    <g id="xtick_6">
     <g id="line2d_9">
      <g>
       <use xlink:href="#m8520d629ad" x="247.359886" y="74.92" style="stroke: #000000; stroke-width: 0.8"/>
      </g>
     </g>
    </g>
   </g>
   <g id="matplotlib.axis_4">
    <g id="ytick_4">
     <g id="line2d_10">
      <g>
       <use xlink:href="#me971a4893e" x="68.87" y="74.92" style="stroke: #000000; stroke-width: 0.8"/>
      </g>
     </g>
     <g id="text_18">
      <!-- 0 -->
      <g transform="translate(55.5075 78.719219) scale(0.1 -0.1)">
       <defs>
        <path id="DejaVuSans-30" d="M 2034 4250 
Q 1547 4250 1301 3770 
Q 1056 3291 1056 2328 
Q 1056 1369 1301 889 
Q 1547 409 2034 409 
Q 2525 409 2770 889 
Q 3016 1369 3016 2328 
Q 3016 3291 2770 3770 
Q 2525 4250 2034 4250 
z
M 2034 4750 
Q 2819 4750 3233 4129 
Q 3647 3509 3647 2328 
Q 3647 1150 3233 529 
Q 2819 -91 2034 -91 
Q 1250 -91 836 529 
Q 422 1150 422 2328 
Q 422 3509 836 4129 
Q 1250 4750 2034 4750 
z
" transform="scale(0.015625)"/>
       </defs>
       <use xlink:href="#DejaVuSans-30"/>
      </g>
     </g>
    </g>
    <g id="ytick_5">
     <g id="line2d_11">
      <g>
       <use xlink:href="#me971a4893e" x="68.87" y="38.998431" style="stroke: #000000; stroke-width: 0.8"/>
      </g>
     </g>
     <g id="text_19">
      <!-- 20 -->
      <g transform="translate(49.145 42.79765) scale(0.1 -0.1)">
       <use xlink:href="#DejaVuSans-32"/>
       <use xlink:href="#DejaVuSans-30" x="63.623047"/>
      </g>
     </g>
    </g>
   </g>
   <g id="patch_12">
    <path d="M 68.87 74.92 
L 68.87 10.8 
" style="fill: none; stroke: #000000; stroke-width: 0.8; stroke-linejoin: miter; stroke-linecap: square"/>
   </g>
   <g id="patch_13">
    <path d="M 68.87 74.92 
L 275.5425 74.92 
" style="fill: none; stroke: #000000; stroke-width: 0.8; stroke-linejoin: miter; stroke-linecap: square"/>
   </g>
  </g>
  <g id="axes_3">
   <g id="patch_14">
    <path d="M 289.8425 318.04 
L 349.2 318.04 
L 349.2 91.84 
L 289.8425 91.84 
z
" style="fill: #ffffff"/>
   </g>
   <g id="patch_15">
    <path d="M 289.8425 102.121818 
L 326.653353 102.121818 
L 326.653353 143.249091 
L 289.8425 143.249091 
z
" clip-path="url(#p6e2efc8552)" style="fill: #ff7f0e; fill-opacity: 0.75; stroke: #000000; stroke-linejoin: miter"/>
   </g>
   <g id="patch_16">
    <path d="M 289.8425 184.376364 
L 314.821293 184.376364 
L 314.821293 225.503636 
L 289.8425 225.503636 
z
" clip-path="url(#p6e2efc8552)" style="fill: #ff7f0e; fill-opacity: 0.75; stroke: #000000; stroke-linejoin: miter"/>
   </g>
   <g id="patch_17">
    <path d="M 289.8425 266.630909 
L 309.5626 266.630909 
L 309.5626 307.758182 
L 289.8425 307.758182 
z
" clip-path="url(#p6e2efc8552)" style="fill: #ff7f0e; fill-opacity: 0.75; stroke: #000000; stroke-linejoin: miter"/>
   </g>
   <g id="patch_18">
    <path d="M 326.653353 102.121818 
L 346.373452 102.121818 
L 346.373452 143.249091 
L 326.653353 143.249091 
z
" clip-path="url(#p6e2efc8552)" style="fill: #1f77b4; fill-opacity: 0.75; stroke: #000000; stroke-linejoin: miter"/>
   </g>
   <g id="patch_19">
    <path d="M 314.821293 184.376364 
L 329.282699 184.376364 
L 329.282699 225.503636 
L 314.821293 225.503636 
z
" clip-path="url(#p6e2efc8552)" style="fill: #1f77b4; fill-opacity: 0.75; stroke: #000000; stroke-linejoin: miter"/>
   </g>
   <g id="patch_20">
    <path d="M 309.5626 266.630909 
L 325.338679 266.630909 
L 325.338679 307.758182 
L 309.5626 307.758182 
z
" clip-path="url(#p6e2efc8552)" style="fill: #1f77b4; fill-opacity: 0.75; stroke: #000000; stroke-linejoin: miter"/>
   </g>
   <g id="matplotlib.axis_5">
    <g id="xtick_7">
     <g id="line2d_12">
      <g>
       <use xlink:href="#m8520d629ad" x="289.8425" y="318.04" style="stroke: #000000; stroke-width: 0.8"/>
      </g>
     </g>
     <g id="text_20">
      <!-- 0 -->
      <g transform="translate(286.66125 332.638438) scale(0.1 -0.1)">
       <use xlink:href="#DejaVuSans-30"/>
      </g>
     </g>
    </g>
    <g id="xtick_8">
     <g id="line2d_13">
      <g>
       <use xlink:href="#m8520d629ad" x="322.709333" y="318.04" style="stroke: #000000; stroke-width: 0.8"/>
      </g>
     </g>
     <g id="text_21">
      <!-- 25 -->
      <g transform="translate(316.346833 332.638438) scale(0.1 -0.1)">
       <use xlink:href="#DejaVuSans-32"/>
       <use xlink:href="#DejaVuSans-35" x="63.623047"/>
      </g>
     </g>
    </g>
   </g>
   <g id="matplotlib.axis_6">
    <g id="ytick_6">
     <g id="line2d_14">
      <g>
       <use xlink:href="#me971a4893e" x="289.8425" y="122.685455" style="stroke: #000000; stroke-width: 0.8"/>
      </g>
     </g>
    </g>
    <g id="ytick_7">
     <g id="line2d_15">
      <g>
       <use xlink:href="#me971a4893e" x="289.8425" y="204.94" style="stroke: #000000; stroke-width: 0.8"/>
      </g>
     </g>
    </g>
    <g id="ytick_8">
     <g id="line2d_16">
      <g>
       <use xlink:href="#me971a4893e" x="289.8425" y="287.194545" style="stroke: #000000; stroke-width: 0.8"/>
      </g>
     </g>
    </g>
   </g>
   <g id="patch_21">
    <path d="M 289.8425 318.04 
L 289.8425 91.84 
" style="fill: none; stroke: #000000; stroke-width: 0.8; stroke-linejoin: miter; stroke-linecap: square"/>
   </g>
   <g id="patch_22">
    <path d="M 289.8425 318.04 
L 349.2 318.04 
" style="fill: none; stroke: #000000; stroke-width: 0.8; stroke-linejoin: miter; stroke-linecap: square"/>
   </g>
  </g>
 </g>
 <defs>
  <clipPath id="p4ad2bfe0fb">
   <rect x="68.87" y="91.84" width="206.6725" height="226.2"/>
  </clipPath>
  <clipPath id="pa6e23b6270">
   <rect x="68.87" y="10.8" width="206.6725" height="64.12"/>
  </clipPath>
  <clipPath id="p6e2efc8552">
   <rect x="289.8425" y="91.84" width="59.3575" height="226.2"/>
  </clipPath>
 </defs>
</svg>
